<svg width="16" height="16" viewBox="0 0 16 16" fill="none" xmlns="http://www.w3.org/2000/svg">
<g id="arrow-down 1">
<g id="Group">
<g id="Group_2">
<path id="Vector" fill-rule="evenodd" clip-rule="evenodd" d="M7.99999 1C8.1326 1 8.25978 1.05268 8.35354 1.14645C8.44731 1.24021 8.49999 1.36739 8.49999 1.5V13.293L11.646 10.146C11.7399 10.0521 11.8672 9.99937 12 9.99937C12.1328 9.99937 12.2601 10.0521 12.354 10.146C12.4479 10.2399 12.5006 10.3672 12.5006 10.5C12.5006 10.6328 12.4479 10.7601 12.354 10.854L8.35399 14.854C8.30754 14.9006 8.25237 14.9375 8.19162 14.9627C8.13088 14.9879 8.06576 15.0009 7.99999 15.0009C7.93422 15.0009 7.8691 14.9879 7.80836 14.9627C7.74761 14.9375 7.69244 14.9006 7.64599 14.854L3.64599 10.854C3.5521 10.7601 3.49936 10.6328 3.49936 10.5C3.49936 10.3672 3.5521 10.2399 3.64599 10.146C3.73988 10.0521 3.86721 9.99937 3.99999 9.99937C4.13277 9.99937 4.2601 10.0521 4.35399 10.146L7.49999 13.293V1.5C7.49999 1.36739 7.55267 1.24021 7.64644 1.14645C7.74021 1.05268 7.86738 1 7.99999 1Z" fill="black"/>
</g>
</g>
</g>
</svg>
