<svg width="108" height="108" viewBox="0 0 108 108" fill="none" xmlns="http://www.w3.org/2000/svg">
<g id="bullseye 1" clip-path="url(#clip0_54_378)">
<g id="Group">
<g id="Group_2">
<path id="Vector" d="M94.5 54C94.5 48.6815 93.4524 43.415 91.4171 38.5013C89.3818 33.5876 86.3986 29.1229 82.6378 25.3622C78.8771 21.6014 74.4124 18.6182 69.4987 16.5829C64.585 14.5476 59.3185 13.5 54 13.5C48.6815 13.5 43.415 14.5476 38.5013 16.5829C33.5876 18.6182 29.1229 21.6014 25.3622 25.3622C21.6014 29.1229 18.6182 33.5876 16.5829 38.5013C14.5476 43.415 13.5 48.6815 13.5 54C13.5 59.3185 14.5476 64.585 16.5829 69.4987C18.6182 74.4124 21.6014 78.8771 25.3622 82.6378C29.1229 86.3986 33.5876 89.3818 38.5013 91.4171C43.415 93.4524 48.6815 94.5 54 94.5C59.3185 94.5 64.585 93.4524 69.4987 91.4171C74.4124 89.3818 78.8771 86.3986 82.6378 82.6378C86.3986 78.8771 89.3818 74.4124 91.4171 69.4987C93.4524 64.585 94.5 59.3185 94.5 54ZM0 54C0 39.6783 5.68927 25.9432 15.8162 15.8162C25.9432 5.68927 39.6783 0 54 0C68.3217 0 82.0568 5.68927 92.1838 15.8162C102.311 25.9432 108 39.6783 108 54C108 68.3217 102.311 82.0568 92.1838 92.1838C82.0568 102.311 68.3217 108 54 108C39.6783 108 25.9432 102.311 15.8162 92.1838C5.68927 82.0568 0 68.3217 0 54ZM54 70.875C58.4755 70.875 62.7678 69.0971 65.9324 65.9324C69.0971 62.7678 70.875 58.4755 70.875 54C70.875 49.5245 69.0971 45.2322 65.9324 42.0676C62.7678 38.9029 58.4755 37.125 54 37.125C49.5245 37.125 45.2322 38.9029 42.0676 42.0676C38.9029 45.2322 37.125 49.5245 37.125 54C37.125 58.4755 38.9029 62.7678 42.0676 65.9324C45.2322 69.0971 49.5245 70.875 54 70.875ZM54 23.625C62.056 23.625 69.7819 26.8252 75.4784 32.5216C81.1748 38.218 84.375 45.944 84.375 54C84.375 62.056 81.1748 69.7819 75.4784 75.4784C69.7819 81.1748 62.056 84.375 54 84.375C45.944 84.375 38.218 81.1748 32.5216 75.4784C26.8252 69.7819 23.625 62.056 23.625 54C23.625 45.944 26.8252 38.218 32.5216 32.5216C38.218 26.8252 45.944 23.625 54 23.625ZM47.25 54C47.25 52.2098 47.9612 50.4929 49.227 49.227C50.4929 47.9612 52.2098 47.25 54 47.25C55.7902 47.25 57.5071 47.9612 58.773 49.227C60.0388 50.4929 60.75 52.2098 60.75 54C60.75 55.7902 60.0388 57.5071 58.773 58.773C57.5071 60.0388 55.7902 60.75 54 60.75C52.2098 60.75 50.4929 60.0388 49.227 58.773C47.9612 57.5071 47.25 55.7902 47.25 54Z" fill="black"/>
</g>
</g>
</g>
<defs>
<clipPath id="clip0_54_378">
<rect width="108" height="108" fill="white"/>
</clipPath>
</defs>
</svg>
