<svg width="58" height="58" viewBox="0 0 58 58" fill="none" xmlns="http://www.w3.org/2000/svg">
<g id="Ellipse">
<g id="Ellipse_2">
<path d="M58 29C58 37.0081 54.7541 44.2581 49.5061 49.5061C44.2581 54.754 37.0081 58 29 58C20.9919 58 13.7419 54.754 8.4939 49.5061C3.24594 44.2581 0 37.0081 0 29C0 20.9918 3.24594 13.7418 8.4939 8.49387C13.7419 3.2459 20.9919 -3.05176e-05 29 -3.05176e-05C37.0081 -3.05176e-05 44.2581 3.2459 49.5061 8.49387C54.7541 13.7418 58 20.9918 58 29Z" fill="#E5E5E5"/>
<path d="M49.503 48.7959L29.7071 29L49.503 9.20406C54.4547 14.3314 57.5 21.3096 57.5 29C57.5 36.6903 54.4547 43.6685 49.503 48.7959ZM48.7959 8.49695L29 28.2929L9.20409 8.49695C14.3314 3.54531 21.3096 0.499969 29 0.499969C36.6904 0.499969 43.6686 3.54531 48.7959 8.49695ZM29 29.7071L48.7959 49.503C43.6686 54.4546 36.6904 57.5 29 57.5C21.3096 57.5 14.3314 54.4546 9.20409 49.503L29 29.7071ZM28.2929 29L8.49698 48.7959C3.54534 43.6685 0.5 36.6903 0.5 29C0.5 21.3096 3.54534 14.3314 8.49698 9.20406L28.2929 29Z" stroke="black" stroke-opacity="0.3"/>
</g>
</g>
</svg>
