<svg width="122" height="108" viewBox="0 0 122 108" fill="none" xmlns="http://www.w3.org/2000/svg">
<g id="eye 2" clip-path="url(#clip0_54_432)">
<g id="Group">
<g id="Group_2">
<path id="Vector" d="M61 6.75C43.9562 6.75 30.3086 14.5125 20.3734 23.7516C10.5015 32.9062 3.89919 43.875 0.777319 51.4055C0.0812256 53.0719 0.0812256 54.9281 0.777319 56.5945C3.89919 64.125 10.5015 75.0937 20.3734 84.2484C30.3086 93.4875 43.9562 101.25 61 101.25C78.0437 101.25 91.6914 93.4875 101.627 84.2484C111.498 75.0727 118.101 64.125 121.244 56.5945C121.94 54.9281 121.94 53.0719 121.244 51.4055C118.101 43.875 111.498 32.9062 101.627 23.7516C91.6914 14.5125 78.0437 6.75 61 6.75ZM30.625 54C30.625 45.944 33.8252 38.218 39.5216 32.5216C45.218 26.8252 52.944 23.625 61 23.625C69.0559 23.625 76.7819 26.8252 82.4783 32.5216C88.1748 38.218 91.375 45.944 91.375 54C91.375 62.056 88.1748 69.7819 82.4783 75.4784C76.7819 81.1748 69.0559 84.375 61 84.375C52.944 84.375 45.218 81.1748 39.5216 75.4784C33.8252 69.7819 30.625 62.056 30.625 54ZM61 40.5C61 47.9461 54.9461 54 47.5 54C46.0023 54 44.5679 53.7469 43.2179 53.3039C42.0578 52.9242 40.7078 53.6414 40.75 54.8648C40.8133 56.3203 41.0242 57.7758 41.425 59.2312C44.3148 70.0312 55.4312 76.4438 66.2312 73.5539C77.0312 70.6641 83.4437 59.5477 80.5539 48.7477C78.2125 39.9938 70.4711 34.1086 61.8648 33.75C60.6414 33.7078 59.9242 35.0367 60.3039 36.218C60.7469 37.568 61 39.0023 61 40.5Z" fill="black"/>
</g>
</g>
</g>
<defs>
<clipPath id="clip0_54_432">
<rect width="121.5" height="108" fill="white" transform="translate(0.25)"/>
</clipPath>
</defs>
</svg>
