<svg xmlns="http://www.w3.org/2000/svg" width="512" height="512" preserveAspectRatio="xMidYMid meet" viewBox="0 0 512 512"><title>giving</title><g fill="#FFFFFF" class="nc-icon-wrapper"><g transform="matrix(.1 0 0 -.1 0 512)" fill="#FFFFFF" stroke="none"><path d="M2010 5063 c-441 -69 -809 -331 -999 -711 -47 -94 -98 -254 -117 -367 -21 -132 -14 -364 15 -481 59 -239 165 -436 330 -616 51 -56 51 -57 21 -48 -22 6 -175 -10 -560 -60 -571 -74 -578 -76 -637 -143 -68 -77 -64 4 -61 -1304 3 -1181 3 -1182 24 -1210 34 -45 82 -73 129 -73 27 0 215 59 556 174 850 288 810 273 846 308 40 38 57 87 50 139 l-5 39 1026 2 1027 3 630 340 c572 309 636 345 691 400 188 185 186 486 -4 667 -70 68 -141 105 -236 124 -113 24 -157 14 -525 -117 -184 -66 -336 -118 -337 -116 -2 2 206 209 461 460 498 491 559 560 644 731 101 203 136 352 136 581 -1 174 -14 260 -64 408 -154 454 -547 783 -1030 863 -125 20 -376 15 -481 -11 -173 -42 -345 -116 -468 -201 -35 -24 -67 -44 -71 -44 -5 0 -39 21 -77 46 -151 101 -342 178 -520 209 -79 14 -326 19 -394 8z m443 -347 c163 -49 258 -101 404 -224 119 -99 166 -97 298 13 110 91 204 146 326 189 131 47 222 60 381 53 196 -7 341 -54 503 -162 203 -135 340 -329 407 -573 31 -113 31 -333 0 -457 -28 -111 -103 -268 -170 -355 -28 -36 -349 -359 -713 -717 l-662 -653 -386 0 c-322 0 -382 2 -366 13 11 7 126 74 254 148 319 182 394 255 445 428 33 113 15 278 -42 385 -38 72 -154 185 -224 219 -127 61 -275 71 -400 28 -31 -10 -178 -90 -328 -176 -149 -87 -279 -159 -288 -162 -22 -5 -474 449 -529 532 -121 181 -171 363 -160 588 18 387 267 723 636 858 138 50 198 59 371 55 133 -3 168 -7 243 -30z m-959 -2164 c-48 -2 -89 -1 -91 2 -3 3 -9 38 -13 78 -5 41 -12 87 -15 103 -6 26 8 15 99 -75 l106 -105 -86 -3z m1238 198 c140 -39 186 -232 80 -333 -15 -14 -169 -107 -342 -207 -173 -100 -327 -193 -343 -208 -41 -39 -49 -81 -45 -244 3 -162 9 -179 78 -226 l34 -22 630 2 631 3 570 206 c314 114 584 210 602 213 42 9 113 -21 141 -61 52 -73 30 -170 -49 -216 -24 -14 -294 -161 -599 -326 l-555 -301 -1000 3 -1000 2 -62 560 c-34 308 -62 577 -63 597 l0 36 138 4 137 3 428 248 c236 137 443 255 460 262 39 17 79 18 129 5z m-1551 -1142 c51 -467 90 -850 87 -853 -3 -3 -217 -77 -477 -165 l-471 -160 0 990 c0 936 1 990 18 991 9 0 179 22 377 48 l360 47 7 -25 c3 -14 48 -407 99 -873z"></path><path d="M735 1266 c-101 -44 -125 -178 -46 -257 65 -65 157 -65 222 0 124 124 -15 327 -176 257z"></path></g></g></svg>