    <svg xmlns="http://www.w3.org/2000/svg">
        <symbol id="mucu" viewBox="0 0 354 283">
          <title>MUCU logo</title><g><path d="M0 0 C9.01834431 0 9.01834431 0 13.51171875 0.8828125 C14.50631104 1.0772998 15.50090332 1.27178711 16.52563477 1.47216797 C17.56905029 1.68760254 18.61246582 1.90303711 19.6875 2.125 C20.78312256 2.34945801 21.87874512 2.57391602 23.00756836 2.80517578 C50.52869215 8.59804885 79.33923158 17.04572774 96.8125 40.8125 C115.01545548 68.96048482 113.18102453 100.53893676 113.13037109 132.80200195 C113.12470117 136.44067827 113.12803938 140.0792809 113.13382339 143.71795464 C113.15803453 161.83695826 112.83724269 179.89715174 112 198 C109.42188457 195.51426443 107.67287052 193.00865798 105.8125 189.9375 C102.2677853 184.26745848 98.2578132 179.14449183 94 174 C93.36320312 173.16855469 92.72640625 172.33710938 92.0703125 171.48046875 C76.34234136 152.6365788 51.44754706 144.34964958 28 141 C18.76 140.67 9.52 140.34 0 140 C0 93.8 0 47.6 0 0 Z" fill="#F4A133" transform="translate(2 53)"></path><path d="M0 0 C9.38498363 7.53904016 10.80605611 17.14681226 12.75 28.45703125 C13.3262915 28.29098389 13.90258301 28.12493652 14.49633789 27.95385742 C39.38551119 20.87947247 61.18586848 19.45703125 87.75 19.45703125 C87.75 50.47703125 87.75 81.49703125 87.75 113.45703125 C74.385 113.95203125 74.385 113.95203125 60.75 114.45703125 C22.80564106 117.61906116 -6.96684409 134.30364114 -32.25 162.45703125 C-34.83329662 165.5592087 -37.31800525 168.73223618 -39.73681641 171.96411133 C-41.78408389 174.68973771 -43.37994864 176.54366368 -46.25 178.45703125 C-45.62238024 173.86037948 -43.77192885 170.04329838 -41.6875 165.95703125 C-41.336875 165.26158203 -40.98625 164.56613281 -40.625 163.84960938 C-37.19431083 157.15305062 -33.32192488 150.78151032 -29.25 144.45703125 C-29.93707031 143.91433594 -30.62414062 143.37164062 -31.33203125 142.8125 C-32.68361328 141.73935547 -32.68361328 141.73935547 -34.0625 140.64453125 C-34.95582031 139.93683594 -35.84914062 139.22914063 -36.76953125 138.5 C-40.88976759 135.10648251 -40.88976759 135.10648251 -42.25 133.45703125 C-42.25 132.46703125 -42.25 131.47703125 -42.25 130.45703125 C-40.93 130.78703125 -39.61 131.11703125 -38.25 131.45703125 C-37.528125 130.48765625 -36.80625 129.51828125 -36.0625 128.51953125 C-34.26738309 126.38561763 -33.36984472 125.50796526 -30.75 124.39453125 C-25.62421849 124.52267579 -22.04188514 128.31518356 -18.25 131.45703125 C-17.26 130.46703125 -17.26 130.46703125 -16.25 129.45703125 C-17.013125 129.20953125 -17.77625 128.96203125 -18.5625 128.70703125 C-21.62480696 127.28270243 -22.77390425 126.49122806 -24.25 123.45703125 C-24.25 119.26405513 -23.90144998 117.2042827 -21.125 114.01953125 C-17.49082335 112.04443524 -15.33125936 111.86339353 -11.25 112.45703125 C-8.3557388 114.51348 -7.43411875 115.78192915 -6.5 119.20703125 C-6.4175 119.94953125 -6.335 120.69203125 -6.25 121.45703125 C-5.755 119.97203125 -5.755 119.97203125 -5.25 118.45703125 C-6.95417137 115.52420249 -6.95417137 115.52420249 -9.25 112.45703125 C-11.5625 109.26953125 -11.5625 109.26953125 -13.25 106.45703125 C-12.755 104.97203125 -12.755 104.97203125 -12.25 103.45703125 C-8.16711311 104.81799355 -7.36314183 106.93656447 -5.0625 110.51953125 C-4.34707031 111.62425781 -3.63164062 112.72898437 -2.89453125 113.8671875 C-2.08048828 115.14916016 -2.08048828 115.14916016 -1.25 116.45703125 C-1.25 112.84337388 -4.02381106 109.93283354 -5.9375 106.96484375 C-7.25 104.45703125 -7.25 104.45703125 -7.25 100.45703125 C-6.26 100.45703125 -5.27 100.45703125 -4.25 100.45703125 C-3.92386719 101.0603125 -3.59773438 101.66359375 -3.26171875 102.28515625 C-2.82472656 103.084375 -2.38773438 103.88359375 -1.9375 104.70703125 C-1.50824219 105.4959375 -1.07898438 106.28484375 -0.63671875 107.09765625 C0.6896214 109.35430259 2.13884224 111.39701722 3.75 113.45703125 C2.84953624 110.62700229 1.98525495 107.91447142 0.625 105.26953125 C-0.25 103.45703125 -0.25 103.45703125 -0.25 100.45703125 C1.07 100.45703125 2.39 100.45703125 3.75 100.45703125 C4.245 98.97203125 4.245 98.97203125 4.75 97.45703125 C7.95854939 95.85275656 11.27887077 95.83595445 14.75 96.45703125 C17.0625 98.70703125 17.0625 98.70703125 18.75 101.45703125 C19.61625 102.60171875 19.61625 102.60171875 20.5 103.76953125 C20.9125 104.32640625 21.325 104.88328125 21.75 105.45703125 C22.08 105.12703125 22.41 104.79703125 22.75 104.45703125 C22.275625 104.08578125 21.80125 103.71453125 21.3125 103.33203125 C19.1148295 100.69482665 18.81829282 98.87167223 18.75 95.45703125 C20.52039449 92.70986738 21.81291844 90.92557203 24.75 89.45703125 C31.95541761 88.99954442 31.95541761 88.99954442 34.8125 90.64453125 C36.13135516 93.1943179 35.5475116 94.77449223 34.75 97.45703125 C31.78 98.44703125 28.81 99.43703125 25.75 100.45703125 C29.37528568 100.65843601 31.61501708 100.3147989 34.75 98.45703125 C35.74 99.94203125 35.74 99.94203125 36.75 101.45703125 C37.41 101.12703125 38.07 100.79703125 38.75 100.45703125 C38.42 99.13703125 38.09 97.81703125 37.75 96.45703125 C38.37648438 96.46863281 39.00296875 96.48023438 39.6484375 96.4921875 C40.46570313 96.50121094 41.28296875 96.51023437 42.125 96.51953125 C42.93710938 96.53113281 43.74921875 96.54273438 44.5859375 96.5546875 C46.79937142 96.60169459 46.79937142 96.60169459 48.75 95.45703125 C47.96753906 95.39644531 47.18507813 95.33585937 46.37890625 95.2734375 C44.86103516 95.14775391 44.86103516 95.14775391 43.3125 95.01953125 C41.79849609 94.89771484 41.79849609 94.89771484 40.25390625 94.7734375 C37.75 94.45703125 37.75 94.45703125 36.75 93.45703125 C36.4375 91.08203125 36.4375 91.08203125 36.75 88.45703125 C38.1875 86.64453125 38.1875 86.64453125 40.75 85.45703125 C43.76771016 85.21810755 46.73006841 85.28280443 49.75 85.45703125 C50.08 86.77703125 50.41 88.09703125 50.75 89.45703125 C47.12 89.45703125 43.49 89.45703125 39.75 89.45703125 C39.75 90.11703125 39.75 90.77703125 39.75 91.45703125 C40.96236328 91.40482422 40.96236328 91.40482422 42.19921875 91.3515625 C43.26785156 91.32449219 44.33648437 91.29742187 45.4375 91.26953125 C46.49324219 91.23472656 47.54898438 91.19992188 48.63671875 91.1640625 C52.14381062 91.49408997 53.81310426 92.60214973 56.75 94.45703125 C59.49852193 94.81678543 61.9604588 94.59887233 64.75 94.45703125 C64.75 93.79703125 64.75 93.13703125 64.75 92.45703125 C64.13511719 92.48023438 63.52023438 92.5034375 62.88671875 92.52734375 C62.07847656 92.54539062 61.27023438 92.5634375 60.4375 92.58203125 C59.23673828 92.61683594 59.23673828 92.61683594 58.01171875 92.65234375 C55.75 92.45703125 55.75 92.45703125 52.75 90.45703125 C52.375 87.95703125 52.375 87.95703125 52.75 85.45703125 C56.06371 83.24789125 57.0946021 83.23221572 60.9375 83.33203125 C61.83855469 83.35007812 62.73960937 83.368125 63.66796875 83.38671875 C64.35503906 83.40992188 65.04210937 83.433125 65.75 83.45703125 C66.08 84.77703125 66.41 86.09703125 66.75 87.45703125 C65.1103125 87.17859375 65.1103125 87.17859375 63.4375 86.89453125 C59.81375867 86.19922445 59.81375867 86.19922445 56.75 87.45703125 C58.32265794 89.02968919 60.07840029 88.76461102 62.25 88.95703125 C66.63888889 89.34592014 66.63888889 89.34592014 67.75 90.45703125 C67.79080783 92.45661489 67.79254356 94.45748379 67.75 96.45703125 C66.76 96.95203125 66.76 96.95203125 65.75 97.45703125 C67.73 97.45703125 69.71 97.45703125 71.75 97.45703125 C71.42 77.32703125 71.09 57.19703125 70.75 36.45703125 C48.37775843 33.66050105 28.62100925 39.11252391 7.89941406 47.08789062 C1.36112215 49.57099548 -5.1711673 51.74673078 -11.9375 53.51953125 C-12.70868164 53.72312256 -13.47986328 53.92671387 -14.27441406 54.13647461 C-17.9959417 55.06602097 -21.40986345 55.6918325 -25.25 55.45703125 C-25.25 54.79703125 -25.25 54.13703125 -25.25 53.45703125 C-22.775 52.96203125 -22.775 52.96203125 -20.25 52.45703125 C-21.26707031 52.45316406 -21.26707031 52.45316406 -22.3046875 52.44921875 C-29.88711913 52.13415926 -35.40066668 50.39624103 -41.25 45.45703125 C-48.08991817 37.29639718 -49.14729414 29.96819123 -48.25 19.45703125 C-47.20364859 16.50531506 -45.8368757 14.18447386 -44.25 11.45703125 C-44.2809375 10.15765625 -44.2809375 10.15765625 -44.3125 8.83203125 C-44.23149249 5.75374583 -42.97430563 4.18879919 -40.9453125 1.9453125 C-29.4330716 -8.16105566 -12.4774049 -8.55655371 0 0 Z M-25.25 -0.54296875 C-25.25 -0.21296875 -25.25 0.11703125 -25.25 0.45703125 C-21.95 0.78703125 -18.65 1.11703125 -15.25 1.45703125 C-19.24110319 -0.53852035 -20.94986566 -0.7384294 -25.25 -0.54296875 Z M-30.25 0.45703125 C-30.25 0.78703125 -30.25 1.11703125 -30.25 1.45703125 C-28.6 1.45703125 -26.95 1.45703125 -25.25 1.45703125 C-25.25 1.12703125 -25.25 0.79703125 -25.25 0.45703125 C-26.9 0.45703125 -28.55 0.45703125 -30.25 0.45703125 Z M0.75 14.45703125 C1.75 16.45703125 1.75 16.45703125 1.75 16.45703125 Z M1.75 16.45703125 C2.75 18.45703125 2.75 18.45703125 2.75 18.45703125 Z M2.75 19.45703125 C2.75 24.07703125 2.75 28.69703125 2.75 33.45703125 C3.08 33.45703125 3.41 33.45703125 3.75 33.45703125 C3.75 28.83703125 3.75 24.21703125 3.75 19.45703125 C3.42 19.45703125 3.09 19.45703125 2.75 19.45703125 Z M1.75 34.45703125 C2.75 36.45703125 2.75 36.45703125 2.75 36.45703125 Z M0.75 36.45703125 C1.75 38.45703125 1.75 38.45703125 1.75 38.45703125 Z M-0.25 38.45703125 C0.75 40.45703125 0.75 40.45703125 0.75 40.45703125 Z M22.75 94.45703125 C22.75 95.44703125 22.75 96.43703125 22.75 97.45703125 C25.72 96.46703125 28.69 95.47703125 31.75 94.45703125 C31.42 93.79703125 31.09 93.13703125 30.75 92.45703125 C27.03400809 92.25616682 25.97791555 92.30508755 22.75 94.45703125 Z M52.75 96.45703125 C51.76 97.94203125 51.76 97.94203125 50.75 99.45703125 C52.73 99.45703125 54.71 99.45703125 56.75 99.45703125 C55.77149805 98.43598574 54.77019573 97.43641915 53.75 96.45703125 C53.42 96.45703125 53.09 96.45703125 52.75 96.45703125 Z M5.75 101.45703125 C5.3742084 105.77863459 5.75204575 107.46112274 7.75 111.45703125 C10.72 110.46703125 13.69 109.47703125 16.75 108.45703125 C16.22755558 104.69543144 15.5272785 102.13512123 12.75 99.45703125 C9.26617922 98.94720382 8.28475768 98.92227357 5.75 101.45703125 Z M-19.6875 117.14453125 C-21.47594003 119.28665159 -21.47594003 119.28665159 -21.125 121.58203125 C-20.29449779 123.64036216 -20.29449779 123.64036216 -18.25 125.45703125 C-15.47130072 125.24328515 -13.69844389 124.75599385 -11.375 123.20703125 C-9.96610541 121.42212997 -9.96610541 121.42212997 -10.5625 118.76953125 C-10.9028125 117.62484375 -10.9028125 117.62484375 -11.25 116.45703125 C-15.69629626 115.18980803 -15.69629626 115.18980803 -19.6875 117.14453125 Z M-33.0625 129.64453125 C-34.48196591 131.43592944 -34.48196591 131.43592944 -34.1875 133.89453125 C-33.07747848 136.92859008 -31.62097609 138.30159844 -29.25 140.45703125 C-28.26 141.94203125 -28.26 141.94203125 -27.25 143.45703125 C-24.94 140.81703125 -22.63 138.17703125 -20.25 135.45703125 C-21.03375 134.67328125 -21.8175 133.88953125 -22.625 133.08203125 C-24.16666667 131.54036458 -25.70833333 129.99869792 -27.25 128.45703125 C-31.05350374 128.09168041 -31.05350374 128.09168041 -33.0625 129.64453125 Z" fill="#25AAE0" transform="translate(180.25 72.543)"></path><path d="M0 0 C3.3 0 6.6 0 10 0 C10.33 9.24 10.66 18.48 11 28 C12.65 28 14.3 28 16 28 C16.99 30.97 17.98 33.94 19 37 C20.32 34.03 21.64 31.06 23 28 C29.6 28 36.2 28 43 28 C43.495 34.93 43.495 34.93 44 42 C46.97 42 49.94 42 53 42 C53 41.34 53 40.68 53 40 C51.700625 40.020625 50.40125 40.04125 49.0625 40.0625 C47.70834367 40.08399454 46.35243917 40.07148199 45 40 C44 39 44 39 43.8671875 36.75 C43.86976563 35.8425 43.87234375 34.935 43.875 34 C43.87113281 32.63875 43.87113281 32.63875 43.8671875 31.25 C44 29 44 29 45 28 C49.200293 27.66162263 53.40623891 27.60046002 57.61816406 27.54003906 C59.03257184 27.51347437 60.44678741 27.47259281 61.86035156 27.41699219 C73.64862355 26.95871276 73.64862355 26.95871276 77.06835938 29.59375 C78.453125 31.53125 78.453125 31.53125 80 35 C80.33 32.69 80.66 30.38 81 28 C87.27 28 93.54 28 100 28 C100.0309375 32.6715625 100.0309375 32.6715625 100.0625 37.4375 C100.071604 38.42032959 100.08070801 39.40315918 100.09008789 40.41577148 C100.09383423 41.56928101 100.09383423 41.56928101 100.09765625 42.74609375 C100.10289307 43.53685303 100.10812988 44.3276123 100.11352539 45.14233398 C100 47 100 47 99 48 C97.18883793 48.07267906 95.3749956 48.08371256 93.5625 48.0625 C92.57378906 48.05347656 91.58507812 48.04445312 90.56640625 48.03515625 C89.71949219 48.02355469 88.87257812 48.01195312 88 48 C87.34 48 86.68 48 86 48 C83.625 47.875 83.625 47.875 81 47 C78.6875 43.9375 78.6875 43.9375 77 41 C76.67 43.31 76.34 45.62 76 48 C71.05 48 66.1 48 61 48 C61.495 50.97 61.495 50.97 62 54 C62.495 53.01 62.495 53.01 63 52 C66.47325181 50.8422494 69.36067448 50.93133348 73 51 C73 51.99 73 52.98 73 54 C69.535 54.495 69.535 54.495 66 55 C65.20046862 58.28696233 64.90341064 59.71023192 66 63 C69.51190809 64.22969878 69.51190809 64.22969878 73 65 C73 65.66 73 66.32 73 67 C64.76007678 67.621881 64.76007678 67.621881 61.9375 65.3125 C61 63 61 63 61 58 C44.5 58 28 58 11 58 C11 125.65 11 193.3 11 263 C7.37 263 3.74 263 0 263 C0 195.68 0 128.36 0 59 C-17.16 59 -34.32 59 -52 59 C-52 55.7 -52 52.4 -52 49 C-34.84 49 -17.68 49 0 49 C0 32.83 0 16.66 0 0 Z M34 33 C38 34 38 34 38 34 Z M49 33 C49 33.66 49 34.32 49 35 C51.97 35.33 54.94 35.66 58 36 C58 35.01 58 34.02 58 33 C55.03 33 52.06 33 49 33 Z M64 33 C64 33.66 64 34.32 64 35 C65.32 35 66.64 35 68 35 C68 36.65 68 38.3 68 40 C66.68 40 65.36 40 64 40 C64 40.66 64 41.32 64 42 C66.31 42 68.62 42 71 42 C71 39.03 71 36.06 71 33 C68.69 33 66.38 33 64 33 Z M92 33 C90.58422523 34.18424326 90.58422523 34.18424326 90.9375 37.5625 C90.958125 38.696875 90.97875 39.83125 91 41 C92.32 41.33 93.64 41.66 95 42 C95 39.03 95 36.06 95 33 C94.01 33 93.02 33 92 33 Z M34 40 C34 42.64 34 45.28 34 48 C35.32 48 36.64 48 38 48 C38 45.36 38 42.72 38 40 C36.68 40 35.36 40 34 40 Z M22 45 C23 48 23 48 23 48 Z M16 46 C17 48 17 48 17 48 Z M57 46 C56.67 46.66 56.34 47.32 56 48 C56.66 48 57.32 48 58 48 C57.67 47.34 57.34 46.68 57 46 Z" fill="#25AAE1" transform="translate(120)"></path><path d="M0 0 C5.84446044 5.52105156 9.16570563 10.38871316 9.48266602 18.62158203 C9.55077321 26.73880807 8.80551233 32.79410751 3 39 C-5.31776312 45.78517695 -12.42093145 46.89683749 -22.91650391 46.26074219 C-28.94668724 45.50608601 -33.12637401 42.26685613 -36.8984375 37.703125 C-42.24281581 30.02528574 -42.87199662 23.27487317 -42 14 C-39.52428746 5.8899072 -35.20119125 1.45069489 -28 -2.75 C-19.0629011 -6.47379121 -7.92612688 -5.85262533 0 0 Z" fill="#F9B160" transform="translate(174 78)"></path><path d="M0 0 C0.328125 2.13671875 0.328125 2.13671875 0.25 4.6875 C0.22421875 5.57566406 0.1984375 6.46382812 0.171875 7.37890625 C-0.04171501 10.63615389 -0.44079743 13.78458524 -1 17 C-2.258125 16.71125 -3.51625 16.4225 -4.8125 16.125 C-26.83728551 11.2843878 -43.73375387 13.69161477 -62.96484375 25.87890625 C-69.12026909 30.20849324 -74.78729035 35.14359173 -80.40673828 40.13964844 C-84.79033775 44 -84.79033775 44 -87 44 C-85.38705648 38.89067581 -82.29416001 35.05785859 -79.0625 30.875 C-78.48129395 30.12234863 -77.90008789 29.36969727 -77.30126953 28.59423828 C-65.20749519 13.17426352 -50.55272851 0.65384275 -30.62109375 -2.7265625 C-7.67976804 -5.11984536 -7.67976804 -5.11984536 0 0 Z" fill="#F5A133" transform="translate(220 219)"></path><path d="M0 0 C1.41440777 -0.02656469 2.82862335 -0.06744625 4.2421875 -0.12304688 C16.03045948 -0.5813263 16.03045948 -0.5813263 19.45019531 2.05371094 C20.83496094 3.99121094 20.83496094 3.99121094 22.38183594 7.45996094 C22.71183594 5.14996094 23.04183594 2.83996094 23.38183594 0.45996094 C29.65183594 0.45996094 35.92183594 0.45996094 42.38183594 0.45996094 C42.40246094 3.57433594 42.42308594 6.68871094 42.44433594 9.89746094 C42.45343994 10.88029053 42.46254395 11.86312012 42.47192383 12.87573242 C42.47442139 13.64473877 42.47691895 14.41374512 42.47949219 15.20605469 C42.484729 15.99681396 42.48996582 16.78757324 42.49536133 17.60229492 C42.38183594 19.45996094 42.38183594 19.45996094 41.38183594 20.45996094 C39.57067387 20.53263999 37.75683154 20.5436735 35.94433594 20.52246094 C34.955625 20.5134375 33.96691406 20.50441406 32.94824219 20.49511719 C32.10132813 20.48351562 31.25441406 20.47191406 30.38183594 20.45996094 C29.72183594 20.45996094 29.06183594 20.45996094 28.38183594 20.45996094 C26.00683594 20.33496094 26.00683594 20.33496094 23.38183594 19.45996094 C21.06933594 16.39746094 21.06933594 16.39746094 19.38183594 13.45996094 C19.05183594 15.76996094 18.72183594 18.07996094 18.38183594 20.45996094 C7.71516927 20.45996094 -2.9514974 20.45996094 -13.61816406 20.45996094 C-13.61816406 18.47996094 -13.61816406 16.49996094 -13.61816406 14.45996094 C-10.64816406 14.45996094 -7.67816406 14.45996094 -4.61816406 14.45996094 C-4.61816406 13.79996094 -4.61816406 13.13996094 -4.61816406 12.45996094 C-5.91753906 12.48058594 -7.21691406 12.50121094 -8.55566406 12.52246094 C-9.9098204 12.54395548 -11.26572489 12.53144292 -12.61816406 12.45996094 C-13.61816406 11.45996094 -13.61816406 11.45996094 -13.75097656 9.20996094 C-13.74839844 8.30246094 -13.74582031 7.39496094 -13.74316406 6.45996094 C-13.74574219 5.55246094 -13.74832031 4.64496094 -13.75097656 3.70996094 C-13.41360196 -2.00556177 -4.49572913 0.06449218 0 0 Z M-8.61816406 5.45996094 C-8.61816406 6.11996094 -8.61816406 6.77996094 -8.61816406 7.45996094 C-5.64816406 7.78996094 -2.67816406 8.11996094 0.38183594 8.45996094 C0.38183594 7.46996094 0.38183594 6.47996094 0.38183594 5.45996094 C-2.58816406 5.45996094 -5.55816406 5.45996094 -8.61816406 5.45996094 Z M6.38183594 5.45996094 C6.38183594 6.11996094 6.38183594 6.77996094 6.38183594 7.45996094 C7.70183594 7.45996094 9.02183594 7.45996094 10.38183594 7.45996094 C10.38183594 9.10996094 10.38183594 10.75996094 10.38183594 12.45996094 C9.06183594 12.45996094 7.74183594 12.45996094 6.38183594 12.45996094 C6.38183594 13.11996094 6.38183594 13.77996094 6.38183594 14.45996094 C8.69183594 14.45996094 11.00183594 14.45996094 13.38183594 14.45996094 C13.38183594 11.48996094 13.38183594 8.51996094 13.38183594 5.45996094 C11.07183594 5.45996094 8.76183594 5.45996094 6.38183594 5.45996094 Z M34.38183594 5.45996094 C32.96606117 6.6442042 32.96606117 6.6442042 33.31933594 10.02246094 C33.33996094 11.15683594 33.36058594 12.29121094 33.38183594 13.45996094 C34.70183594 13.78996094 36.02183594 14.11996094 37.38183594 14.45996094 C37.38183594 11.48996094 37.38183594 8.51996094 37.38183594 5.45996094 C36.39183594 5.45996094 35.40183594 5.45996094 34.38183594 5.45996094 Z" fill="#000" transform="translate(177.618 27.54)"></path><path d="M0 0 C11.121509 7.15969349 17.98266107 16.77875903 23.4453125 28.57421875 C20.4453125 28.57421875 20.4453125 28.57421875 18.74609375 27.10546875 C18.08996094 26.43515625 17.43382812 25.76484375 16.7578125 25.07421875 C3.22876583 12.68909147 -13.77081261 9.47239425 -31.5546875 8.57421875 C-31.5546875 3.95421875 -31.5546875 -0.66578125 -31.5546875 -5.42578125 C-20.71449549 -8.13582925 -9.7083686 -5.19756711 0 0 Z" fill="#25AAE1" transform="translate(89.555 233.426)"></path><path d="M0 0 C4.29 0 8.58 0 13 0 C13 1.65 13 3.3 13 5 C10.36 5 7.72 5 5 5 C5 5.66 5 6.32 5 7 C7.64 7 10.28 7 13 7 C13.33 4.69 13.66 2.38 14 0 C21.92 0 29.84 0 38 0 C38.66 1.32 39.32 2.64 40 4 C40.66 2.68 41.32 1.36 42 0 C43.65 0 45.3 0 47 0 C46.56234307 2.97606712 45.95172834 5.08849804 44.5 7.75 C42.61793212 11.82781374 42.28615636 15.5596427 42 20 C40.35 20 38.7 20 37 20 C36.94392578 19.00419922 36.94392578 19.00419922 36.88671875 17.98828125 C36.47670738 10.95109326 36.47670738 10.95109326 33 5 C31.68 5 30.36 5 29 5 C29 9.95 29 14.9 29 20 C27.35 20 25.7 20 24 20 C24 15.05 24 10.1 24 5 C22.35 5 20.7 5 19 5 C19 9.95 19 14.9 19 20 C12.66666667 20 6.33333333 20 0 20 C0 18.02 0 16.04 0 14 C2.64 14 5.28 14 8 14 C8 13.34 8 12.68 8 12 C5.36 12 2.72 12 0 12 C0 8.04 0 4.08 0 0 Z" fill="#000" transform="translate(306 28)"></path><path d="M0 0 C0.99 0 1.98 0 3 0 C3.33 3.96 3.66 7.92 4 12 C5.32 12.33 6.64 12.66 8 13 C9.81115956 11.18884044 9.38199448 8.38721773 9.5625 5.9375 C9.64628906 4.83277344 9.73007812 3.72804687 9.81640625 2.58984375 C9.87699219 1.73519531 9.93757813 0.88054688 10 0 C13.125 -0.5625 13.125 -0.5625 17 0 C19.46527449 2.74335318 21.2476366 5.76486756 23 9 C23.33 6.03 23.66 3.06 24 0 C25.98 0 27.96 0 30 0 C30.33 1.32 30.66 2.64 31 4 C31.37125 3.525625 31.7425 3.05125 32.125 2.5625 C34.72324494 0.39729589 36.64866084 0.13678935 40 0 C42.375 1.4375 42.375 1.4375 44 3 C44.33 2.01 44.66 1.02 45 0 C46.32 0 47.64 0 49 0 C50.484375 1.75 50.484375 1.75 51.75 4 C52.17796875 4.7425 52.6059375 5.485 53.046875 6.25 C53.36140625 6.8275 53.6759375 7.405 54 8 C54.33 5.36 54.66 2.72 55 0 C55.99 0 56.98 0 58 0 C58 5.28 58 10.56 58 16 C56.68 16 55.36 16 54 16 C52.515625 14.25 52.515625 14.25 51.25 12 C50.82203125 11.2575 50.3940625 10.515 49.953125 9.75 C49.48132813 8.88375 49.48132813 8.88375 49 8 C48.67 10.64 48.34 13.28 48 16 C47.01 16 46.02 16 45 16 C44.505 15.01 44.505 15.01 44 14 C43.01 14.66 42.02 15.32 41 16 C34.72381588 16.56037358 34.72381588 16.56037358 32.0625 14.5 C31.711875 14.005 31.36125 13.51 31 13 C30.67 13.99 30.34 14.98 30 16 C26.875 16.5 26.875 16.5 23 16 C20.57047394 13.59682455 18.7737836 10.91082436 17 8 C16.67 10.64 16.34 13.28 16 16 C15.360625 15.814375 14.72125 15.62875 14.0625 15.4375 C13.0415625 15.2209375 13.0415625 15.2209375 12 15 C11.67 15.33 11.34 15.66 11 16 C3.74461218 16.46808954 3.74461218 16.46808954 1.25390625 14.90234375 C-0.62367481 12.05380178 -0.28746941 9.6781368 -0.1875 6.3125 C-0.16042969 5.13300781 -0.13335937 3.95351563 -0.10546875 2.73828125 C-0.07066406 1.83464844 -0.03585937 0.93101563 0 0 Z M36 3 C34.0470311 5.14311671 34.0470311 5.14311671 33 8 C33.39980539 10.79174051 33.39980539 10.79174051 35 13 C36.87957244 14.1576585 36.87957244 14.1576585 39 14 C40.95625978 13.04451019 40.95625978 13.04451019 42 11 C41.77669287 7.35265021 41.61627165 5.61627165 39 3 C38.01 3 37.02 3 36 3 Z" fill="#000" transform="translate(292 51)"></path><path d="M0 0 C4.72613926 5.45323761 5.34791829 13.3346821 5.0625 20.375 C3.31478828 26.33778115 -1.02000614 28.68000409 -6 32 C-7.32 32 -8.64 32 -10 32 C-9.34 32.99 -8.68 33.98 -8 35 C-5.390379 35.38411275 -2.9941926 35.60293197 -0.375 35.6875 C0.33140625 35.72166016 1.0378125 35.75582031 1.765625 35.79101562 C3.50985688 35.87351308 5.25490395 35.93843335 7 36 C1.9059081 42.70459519 1.9059081 42.70459519 -1.875 43.9375 C-2.57625 43.958125 -3.2775 43.97875 -4 44 C-4.0825 43.38125 -4.165 42.7625 -4.25 42.125 C-4.80603954 39.86527098 -4.80603954 39.86527098 -6.8125 38.8125 C-8.86376758 38.05060061 -10.86154631 37.45824008 -13 37 C-13 36.34 -13 35.68 -13 35 C-13.556875 35.226875 -14.11375 35.45375 -14.6875 35.6875 C-17 36 -17 36 -19.5625 35 C-23.24352021 31.97967572 -24.45556351 28.23823889 -25.5625 23.6875 C-25.91285592 21.74913067 -25.91285592 21.74913067 -28 20 C-26.35 19.67 -24.7 19.34 -23 19 C-22.01 20.32 -21.02 21.64 -20 23 C-13.41731593 19.90674799 -5.6678709 15.41877407 -2 9 C-1.13472638 6.02687958 -0.50560574 3.05359253 0 0 Z" fill="#13AB5B" transform="translate(165 78)"></path><path d="M0 0 C3.3 0 6.6 0 10 0 C10.99 1.98 11.98 3.96 13 6 C13.66 4.02 14.32 2.04 15 0 C20.61 0 26.22 0 32 0 C32 1.65 32 3.3 32 5 C30.02 5 28.04 5 26 5 C26 5.66 26 6.32 26 7 C27.32 7 28.64 7 30 7 C30 8.65 30 10.3 30 12 C28.68 12 27.36 12 26 12 C26 12.66 26 13.32 26 14 C27.98 14 29.96 14 32 14 C32 15.98 32 17.96 32 20 C28.04 20 24.08 20 20 20 C19.505 13.565 19.505 13.565 19 7 C17.68 11.29 16.36 15.58 15 20 C13.35 20 11.7 20 10 20 C8.68 15.38 7.36 10.76 6 6 C5.67 10.62 5.34 15.24 5 20 C3.35 20 1.7 20 0 20 C0 13.4 0 6.8 0 0 Z" fill="#000" transform="translate(258 28)"></path><path d="M0 0 C5.84446044 5.52105156 9.16570563 10.38871316 9.48266602 18.62158203 C9.55077321 26.73880807 8.80551233 32.79410751 3 39 C-5.31776312 45.78517695 -12.42093145 46.89683749 -22.91650391 46.26074219 C-28.94668724 45.50608601 -33.12637401 42.26685613 -36.8984375 37.703125 C-42.24281581 30.02528574 -42.87199662 23.27487317 -42 14 C-39.52428746 5.8899072 -35.20119125 1.45069489 -28 -2.75 C-19.0629011 -6.47379121 -7.92612688 -5.85262533 0 0 Z M-33.875 5.3125 C-39.1290374 11.957312 -39.34324625 17.27297548 -39.3984375 25.59765625 C-38.5435533 32.89769683 -34.65434556 36.80832971 -29.2578125 41.36328125 C-26.3691666 43.45729964 -24.57262809 44 -21 44 C-19.85724609 44.08701172 -19.85724609 44.08701172 -18.69140625 44.17578125 C-11.22873994 44.57333577 -6.47100015 42.90158652 -0.76171875 38.12890625 C3.04798072 34.54927744 5.34117347 32.33556693 6 27 C6.66 27 7.32 27 8 27 C8.70393993 16.71894169 8.70393993 16.71894169 4 8 C-2.54343211 1.57506062 -6.77890364 -1.40056237 -16.15966797 -1.36791992 C-23.47471956 -1.1820933 -28.25503555 0.79209381 -33.875 5.3125 Z" fill="#F89B30" transform="translate(174 78)"></path><path d="M0 0 C0.99 0 1.98 0 3 0 C3.33 3.96 3.66 7.92 4 12 C5.65 8.04 7.3 4.08 9 0 C10.32 0 11.64 0 13 0 C14.65 3.96 16.3 7.92 18 12 C18.33 8.04 18.66 4.08 19 0 C20.32 0 21.64 0 23 0 C24.484375 1.75 24.484375 1.75 25.75 4 C26.17796875 4.7425 26.6059375 5.485 27.046875 6.25 C27.36140625 6.8275 27.6759375 7.405 28 8 C28.33 5.36 28.66 2.72 29 0 C29.99 0 30.98 0 32 0 C32 5.28 32 10.56 32 16 C30.68 16 29.36 16 28 16 C26.515625 14.25 26.515625 14.25 25.25 12 C24.82203125 11.2575 24.3940625 10.515 23.953125 9.75 C23.63859375 9.1725 23.3240625 8.595 23 8 C22.67 10.64 22.34 13.28 22 16 C19.69 16 17.38 16 15 16 C14.67 14.68 14.34 13.36 14 12 C12.02 12.33 10.04 12.66 8 13 C7.67 13.99 7.34 14.98 7 16 C4.69 16 2.38 16 0 16 C0 10.72 0 5.44 0 0 Z M10 5 C9.67 6.65 9.34 8.3 9 10 C10.32 9.67 11.64 9.34 13 9 C12.34 7.68 11.68 6.36 11 5 C10.67 5 10.34 5 10 5 Z" fill="#000" transform="translate(251 51)"></path><path d="M0 0 C1.65 0 3.3 0 5 0 C5.99 2.97 6.98 5.94 8 9 C9.32 6.03 10.64 3.06 12 0 C13.65 0 15.3 0 17 0 C17 6.6 17 13.2 17 20 C11.39 20 5.78 20 0 20 C0 13.4 0 6.8 0 0 Z" fill="#000" transform="translate(131 28)"></path><path d="M0 0 C0.90105469 0.01804688 1.80210937 0.03609375 2.73046875 0.0546875 C3.41753906 0.07789063 4.10460937 0.10109375 4.8125 0.125 C5.1425 1.445 5.4725 2.765 5.8125 4.125 C4.719375 3.939375 3.62625 3.75375 2.5 3.5625 C-1.12374133 2.8671932 -1.12374133 2.8671932 -4.1875 4.125 C-2.61484206 5.69765794 -0.85909971 5.43257977 1.3125 5.625 C5.70138889 6.01388889 5.70138889 6.01388889 6.8125 7.125 C6.85330783 9.12458364 6.85504356 11.12545254 6.8125 13.125 C2.89094114 15.73937258 -0.62986768 15.34203011 -5.1875 15.125 C-6.1775 14.795 -7.1675 14.465 -8.1875 14.125 C-8.88875 14.599375 -9.59 15.07375 -10.3125 15.5625 C-14.29279623 17.72570447 -17.75133983 17.3859506 -22.1875 17.125 C-22.5175 15.805 -22.8475 14.485 -23.1875 13.125 C-22.24777344 13.14240234 -22.24777344 13.14240234 -21.2890625 13.16015625 C-20.06316406 13.17369141 -20.06316406 13.17369141 -18.8125 13.1875 C-17.59433594 13.20490234 -17.59433594 13.20490234 -16.3515625 13.22265625 C-14.13812858 13.26966334 -14.13812858 13.26966334 -12.1875 12.125 C-12.96996094 12.06441406 -13.75242188 12.00382813 -14.55859375 11.94140625 C-15.57050781 11.85761719 -16.58242187 11.77382812 -17.625 11.6875 C-19.13900391 11.56568359 -19.13900391 11.56568359 -20.68359375 11.44140625 C-23.1875 11.125 -23.1875 11.125 -24.1875 10.125 C-24.5 7.75 -24.5 7.75 -24.1875 5.125 C-22.75 3.3125 -22.75 3.3125 -20.1875 2.125 C-17.16978984 1.8860763 -14.20743159 1.95077318 -11.1875 2.125 C-10.8575 3.445 -10.5275 4.765 -10.1875 6.125 C-13.8175 6.125 -17.4475 6.125 -21.1875 6.125 C-21.1875 6.785 -21.1875 7.445 -21.1875 8.125 C-20.37925781 8.09019531 -19.57101563 8.05539063 -18.73828125 8.01953125 C-17.66964844 7.99246094 -16.60101563 7.96539062 -15.5 7.9375 C-14.44425781 7.90269531 -13.38851562 7.86789063 -12.30078125 7.83203125 C-8.79368938 8.16205872 -7.12439574 9.27011848 -4.1875 11.125 C-1.43897807 11.48475418 1.0229588 11.26684108 3.8125 11.125 C3.8125 10.465 3.8125 9.805 3.8125 9.125 C3.19761719 9.14820313 2.58273438 9.17140625 1.94921875 9.1953125 C0.73685547 9.22238281 0.73685547 9.22238281 -0.5 9.25 C-1.30050781 9.27320313 -2.10101563 9.29640625 -2.92578125 9.3203125 C-5.1875 9.125 -5.1875 9.125 -8.1875 7.125 C-8.5625 4.625 -8.5625 4.625 -8.1875 2.125 C-4.87379 -0.08414 -3.8428979 -0.09981553 0 0 Z" fill="#FBAF3F" transform="translate(241.188 155.875)"></path><path d="M0 0 C0.99 0 1.98 0 3 0 C3 2.31 3 4.62 3 7 C5.31 7 7.62 7 10 7 C10 4.69 10 2.38 10 0 C11.91635217 -0.05423638 13.83314925 -0.09289963 15.75 -0.125 C17.35101563 -0.15980469 17.35101563 -0.15980469 18.984375 -0.1953125 C22 0 22 0 26 2 C26 6.62 26 11.24 26 16 C25.01 16 24.02 16 23 16 C22.7525 15.195625 22.505 14.39125 22.25 13.5625 C21.27761141 10.828919 21.27761141 10.828919 18.875 10.1875 C18.25625 10.125625 17.6375 10.06375 17 10 C17 11.98 17 13.96 17 16 C14.69 16 12.38 16 10 16 C10 14.02 10 12.04 10 10 C7.69 10 5.38 10 3 10 C3 11.98 3 13.96 3 16 C2.01 16 1.02 16 0 16 C0 10.72 0 5.44 0 0 Z M17 3 C17 4.32 17 5.64 17 7 C18.65 7 20.3 7 22 7 C22 5.68 22 4.36 22 3 C20.35 3 18.7 3 17 3 Z" fill="#000" transform="translate(194 51)"></path><path d="M0 0 C2.49361571 1.20381448 4.68143083 2.45428722 7 4 C9.41320403 11.23961209 8.30703218 18.26782735 5 25 C2.54766158 27.48639868 1.28786919 27.97392489 -2.234375 28.29296875 C-3.39453125 28.25816406 -4.5546875 28.22335938 -5.75 28.1875 C-6.92046875 28.16042969 -8.0909375 28.13335937 -9.296875 28.10546875 C-10.18890625 28.07066406 -11.0809375 28.03585938 -12 28 C-12.66 26.68 -13.32 25.36 -14 24 C-12.96875 23.608125 -11.9375 23.21625 -10.875 22.8125 C-6.90766027 21.11105959 -4.12573421 18.97688972 -1 16 C0.14077657 12.57767028 0.09815117 9.91326783 0.0625 6.3125 C0.05347656 5.13300781 0.04445312 3.95351562 0.03515625 2.73828125 C0.02355469 1.83464844 0.01195312 0.93101563 0 0 Z" fill="#FCE6CA" transform="translate(169 86)"></path><path d="M0 0 C4.62 0 9.24 0 14 0 C14 6.6 14 13.2 14 20 C12.35 20 10.7 20 9 20 C9 17.36 9 14.72 9 12 C7.68 12 6.36 12 5 12 C5 14.64 5 17.28 5 20 C3.35 20 1.7 20 0 20 C0 13.4 0 6.8 0 0 Z M5 5 C9 6 9 6 9 6 Z" fill="#000" transform="translate(149 28)"></path><path d="M0 0 C0.99386719 0.00902344 1.98773438 0.01804687 3.01171875 0.02734375 C4.15060547 0.04474609 4.15060547 0.04474609 5.3125 0.0625 C5.39928975 3.53408997 4.79956916 5.52836113 2.453125 8.1015625 C0.1334546 10.17992491 -2.23270911 12.14596891 -4.6875 14.0625 C-5.57308594 14.75472656 -5.57308594 14.75472656 -6.4765625 15.4609375 C-9.56231558 17.69217434 -10.72678322 18.0625 -14.6875 18.0625 C-16.6875 15.0625 -16.6875 15.0625 -16.5 12.6875 C-15.00575816 7.85994944 -12.47672659 4.37807326 -8.6875 1.0625 C-5.53819107 0.01273036 -3.29935544 -0.03881595 0 0 Z" fill="#FCE8CF" transform="translate(158.688 82.938)"></path><path d="M0 0 C10.05859375 -0.09765625 10.05859375 -0.09765625 13 0 C14 1 14 1 14.11352539 2.85766602 C14.10828857 3.64842529 14.10305176 4.43918457 14.09765625 5.25390625 C14.09443359 6.10791016 14.09121094 6.96191406 14.08789062 7.84179688 C14.07951172 8.73962891 14.07113281 9.63746094 14.0625 10.5625 C14.05798828 11.46419922 14.05347656 12.36589844 14.04882812 13.29492188 C14.03700225 15.53001314 14.0205222 17.76497437 14 20 C12.35 20 10.7 20 9 20 C9 17.36 9 14.72 9 12 C7.68 12 6.36 12 5 12 C5 14.64 5 17.28 5 20 C3.35 20 1.7 20 0 20 C0 13.4 0 6.8 0 0 Z M5 5 C5 5.66 5 6.32 5 7 C6.32 7 7.64 7 9 7 C9 6.34 9 5.68 9 5 C7.68 5 6.36 5 5 5 Z" fill="#000" transform="translate(291 28)"></path><path d="M0 0 C5 1 5 1 6.8125 3.5625 C7.204375 4.366875 7.59625 5.17125 8 6 C8.33 4.02 8.66 2.04 9 0 C10.65 0 12.3 0 14 0 C14 6.6 14 13.2 14 20 C10 19 10 19 7.75 15.9375 C7.1725 14.968125 6.595 13.99875 6 13 C5.67 15.31 5.34 17.62 5 20 C3.35 20 1.7 20 0 20 C0 13.4 0 6.8 0 0 Z" fill="#000" transform="translate(243 28)"></path><path d="M0 0 C1.65 0 3.3 0 5 0 C5 4.62 5 9.24 5 14 C6.32 14 7.64 14 9 14 C9 9.38 9 4.76 9 0 C10.65 0 12.3 0 14 0 C14 6.27 14 12.54 14 19 C11.52224905 20.23887548 9.76346293 20.16741669 7 20.1875 C5.6696875 20.20876953 5.6696875 20.20876953 4.3125 20.23046875 C2 20 2 20 0 18 C-0.22705078 16.12060547 -0.22705078 16.12060547 -0.1953125 13.8671875 C-0.18886719 13.06152344 -0.18242187 12.25585938 -0.17578125 11.42578125 C-0.15064453 10.16314453 -0.15064453 10.16314453 -0.125 8.875 C-0.11597656 8.02550781 -0.10695312 7.17601562 -0.09765625 6.30078125 C-0.07405647 4.20040116 -0.03818483 2.10016556 0 0 Z" fill="#000" transform="translate(228 28)"></path><path d="M0 0 C1.9375 1.3125 1.9375 1.3125 3 3 C3 3.99 3 4.98 3 6 C3.99 6 4.98 6 6 6 C4.48469886 9.75015868 2.29117587 11.7672066 -0.8125 14.3125 C-2.09060547 15.38951172 -2.09060547 15.38951172 -3.39453125 16.48828125 C-6 18 -6 18 -8.6796875 17.87890625 C-11.90957311 16.65546473 -13.15673644 14.86729888 -15 12 C-15 11.01 -15 10.02 -15 9 C-14.34 9 -13.68 9 -13 9 C-12.525625 9.825 -12.05125 10.65 -11.5625 11.5 C-11.046875 12.325 -10.53125 13.15 -10 14 C-9.01 14 -8.02 14 -7 14 C-7.680625 13.319375 -8.36125 12.63875 -9.0625 11.9375 C-11 9 -11 9 -10.9375 5.3125 C-9.24630956 -0.66303954 -5.56456865 -0.49683649 0 0 Z" fill="#1BACD9" transform="translate(107 208)"></path><path d="M0 0 C3.74530846 0.04181365 4.61457659 0.278269 7.8125 2.5625 C9.75 5.375 9.75 5.375 10.3125 7.9375 C9.5342913 11.30973771 8.62810459 12.4322794 5.75 14.375 C2.99146096 14.70665641 0.54575714 14.56138381 -2.25 14.375 C-2.25 16.025 -2.25 17.675 -2.25 19.375 C-3.24 19.375 -4.23 19.375 -5.25 19.375 C-5.27683987 16.39577407 -5.29676037 13.41678705 -5.3125 10.4375 C-5.32087891 9.58736328 -5.32925781 8.73722656 -5.33789062 7.86132812 C-5.34111328 7.05244141 -5.34433594 6.24355469 -5.34765625 5.41015625 C-5.35289307 4.6612915 -5.35812988 3.91242676 -5.36352539 3.14086914 C-5.14134617 -0.31509276 -2.99927084 0.12910769 0 0 Z" fill="#34ABC6" transform="translate(11.25 171.625)"></path><path d="M0 0 C0.625 1.8125 0.625 1.8125 1 4 C0.01 5.485 0.01 5.485 -1 7 C-1.35730869 10.22660697 -1.35730869 10.22660697 -1.3125 13.8125 C-1.33763672 15.61654297 -1.33763672 15.61654297 -1.36328125 17.45703125 C-0.64782244 24.43467789 2.75067073 28.28968604 7.96484375 32.5859375 C10.73909117 34.51353359 12.62119913 34.93242398 16 35 C17.1446875 35.08894531 17.1446875 35.08894531 18.3125 35.1796875 C25.56584348 35.55562299 30.40334015 33.99366954 35.98046875 29.3515625 C39.29802874 26.21869141 41.76992512 23.51027457 43 19 C44.28835769 22.86507308 43.56002478 24.2856553 42 28 C38.88094968 33.11524252 34.64206379 36.16409035 29 38 C21.18239881 39.27105748 13.18835166 39.32188982 6.1875 35.3125 C2.28124118 32.48245535 -1.26965296 29.69781255 -2.57421875 24.87890625 C-3.13703507 21.07344179 -3.2234559 17.34225886 -3.25 13.5 C-3.270625 12.75363281 -3.29125 12.00726563 -3.3125 11.23828125 C-3.34513272 6.62890985 -2.87482863 3.81293061 0 0 Z" fill="#F89E36" transform="translate(137 86)"></path><path d="M0 0 C1.32 0.33 2.64 0.66 4 1 C4.99 0.67 5.98 0.34 7 0 C8.39439664 -0.06665376 9.79169875 -0.08538199 11.1875 -0.0625 C13.0746875 -0.0315625 13.0746875 -0.0315625 15 0 C15 0.99 15 1.98 15 3 C11.92382812 3.29296875 11.92382812 3.29296875 8.84765625 3.5859375 C8.23792969 3.72257812 7.62820312 3.85921875 7 4 C6.67 4.66 6.34 5.32 6 6 C7.918125 6.185625 7.918125 6.185625 9.875 6.375 C13.75 6.75 13.75 6.75 16 9 C15.67 11.31 15.34 13.62 15 16 C10.05 16 5.1 16 0 16 C0 10.72 0 5.44 0 0 Z M3 8 C3 9.98 3 11.96 3 14 C4.27875 14.061875 5.5575 14.12375 6.875 14.1875 C7.95394531 14.23970703 7.95394531 14.23970703 9.0546875 14.29296875 C9.69664062 14.19628906 10.33859375 14.09960938 11 14 C11.66 13.01 12.32 12.02 13 11 C11.52144705 10.49818809 10.04213942 9.99859924 8.5625 9.5 C7.73878906 9.2215625 6.91507813 8.943125 6.06640625 8.65625 C4.20250304 7.94955282 4.20250304 7.94955282 3 8 Z" fill="#000" transform="translate(221 51)"></path><path d="M0 0 C2.0625 1.1875 2.0625 1.1875 3 3 C2.6875 5.6875 2.6875 5.6875 2 8 C-2.455 9.485 -2.455 9.485 -7 11 C-3.37471432 11.20140476 -1.13498292 10.85776765 2 9 C2 10.32 2 11.64 2 13 C-1.93606919 15.62404613 -5.42590939 15.36302306 -10 15 C-12.72842172 13.41575513 -12.95540222 12.13676652 -13.9375 9.125 C-14 6 -14 6 -12.1875 3.1875 C-8.50908098 -0.49091902 -5.02972872 -0.56456139 0 0 Z M-10 5 C-10 5.99 -10 6.98 -10 8 C-7.03 7.01 -4.06 6.02 -1 5 C-1.33 4.34 -1.66 3.68 -2 3 C-5.71599191 2.79913557 -6.77208445 2.8480563 -10 5 Z" fill="#FBAF40" transform="translate(213 162)"></path><path d="M0 0 C1.74216797 0.02707031 1.74216797 0.02707031 3.51953125 0.0546875 C4.39996094 0.07789062 5.28039062 0.10109375 6.1875 0.125 C6.1875 1.775 6.1875 3.425 6.1875 5.125 C5.37925781 5.09019531 4.57101563 5.05539063 3.73828125 5.01953125 C2.13533203 4.97892578 2.13533203 4.97892578 0.5 4.9375 C-0.55574219 4.90269531 -1.61148438 4.86789063 -2.69921875 4.83203125 C-6.825624 5.22033789 -9.22089747 6.90069036 -12.4375 9.375 C-14.0773116 11.29125154 -14.0773116 11.29125154 -15.25 14.75 C-15.765625 15.86375 -16.28125 16.9775 -16.8125 18.125 C-18.91015625 18.8359375 -18.91015625 18.8359375 -20.8125 19.125 C-20.8125 13.14623973 -20.30797493 10.03671774 -16.0625 5.6875 C-11.02278211 0.92669779 -6.87622062 -0.13891355 0 0 Z" fill="#FDCD99" transform="translate(158.813 78.875)"></path><path d="M0 0 C0 1.32 0 2.64 0 4 C-2.26831293 2.94685471 -4.04044105 1.96477715 -5.9375 0.3125 C-7.98432219 -1.29365667 -7.98432219 -1.29365667 -10.75 -0.6875 C-11.4925 -0.460625 -12.235 -0.23375 -13 0 C-13.95020416 2.239835 -13.95020416 2.239835 -14 5 C-11.60414714 7.64587234 -11.60414714 7.64587234 -9 10 C-9 10.99 -9 11.98 -9 13 C-13.07096983 12.44832652 -15.26025571 10.32626019 -18.25 7.625 C-19.14203125 6.83351562 -20.0340625 6.04203125 -20.953125 5.2265625 C-23 3 -23 3 -23 0 C-21.68 0.33 -20.36 0.66 -19 1 C-18.2575 0.030625 -17.515 -0.93875 -16.75 -1.9375 C-15.17726409 -3.80622835 -14.20020992 -4.89989504 -12 -6 C-7.11207902 -6 -3.40036143 -3.30320825 0 0 Z" fill="#FCAF3F" transform="translate(161 203)"></path><path d="M0 0 C2.4375 1.625 2.4375 1.625 4 4 C4.5625 6.9375 4.5625 6.9375 4 10 C1.5625 12.8125 1.5625 12.8125 -1 15 C-1.33 15.33 -1.66 15.66 -2 16 C-5.3125 16.375 -5.3125 16.375 -9 16 C-11.5 13.9375 -11.5 13.9375 -13 11 C-13.07449923 6.75354391 -12.67977595 4.779743 -9.875 1.5625 C-6.24082335 -0.41259601 -4.08125936 -0.59363772 0 0 Z M-8.4375 4.6875 C-10.22594003 6.82962034 -10.22594003 6.82962034 -9.875 9.125 C-9.04449779 11.18333091 -9.04449779 11.18333091 -7 13 C-4.22130072 12.7862539 -2.44844389 12.2989626 -0.125 10.75 C1.28389459 8.96509872 1.28389459 8.96509872 0.6875 6.3125 C0.3471875 5.1678125 0.3471875 5.1678125 0 4 C-4.44629626 2.73277678 -4.44629626 2.73277678 -8.4375 4.6875 Z" fill="#F9AF41" transform="translate(169 185)"></path><path d="M0 0 C3.8473719 1.11146299 6.38413624 1.94815895 9 5 C12.17664951 11.47095271 13.0090823 17.8276013 12 25 C10.26505096 28.52231345 8.12932309 31.10197212 5.3125 33.8125 C4.68988281 34.41707031 4.06726563 35.02164063 3.42578125 35.64453125 C2.95527344 36.09183594 2.48476562 36.53914063 2 37 C1.34 36.67 0.68 36.34 0 36 C0.99 35.01 1.98 34.02 3 33 C2.67 32.34 2.34 31.68 2 31 C2.61875 30.46375 3.2375 29.9275 3.875 29.375 C8.20630091 24.53413427 8.21562334 19.47415848 8.16796875 13.26953125 C8.08104148 10.83421712 8.08104148 10.83421712 7 8 C5.04402816 6.60287726 3.04563599 5.26220093 1 4 C1.33 4.66 1.66 5.32 2 6 C2.039992 7.99960012 2.04346799 10.00047242 2 12 C-0.60018816 8.09971775 -0.15085514 4.52565431 0 0 Z" fill="#FCBD79" transform="translate(168 82)"></path><path d="M0 0 C3.14395232 2.89574556 4.62474285 5.9888333 6 10 C4.68 10.33 3.36 10.66 2 11 C0.02 7.535 0.02 7.535 -2 4 C-3.66611905 3.957279 -5.33382885 3.95936168 -7 4 C-8.30880966 5.08968674 -8.30880966 5.08968674 -8.1875 7.75 C-8.00187851 10.96743924 -7.36114502 13.10756683 -6 16 C-7.32 16.33 -8.64 16.66 -10 17 C-10.84069415 15.39967863 -11.67231505 13.79458829 -12.5 12.1875 C-13.19609375 10.84751953 -13.19609375 10.84751953 -13.90625 9.48046875 C-15 7 -15 7 -15 4 C-13.68 4 -12.36 4 -11 4 C-10.67 3.01 -10.34 2.02 -10 1 C-6.7882749 -0.60586255 -3.47429946 -0.61351717 0 0 Z" fill="#FBAF40" transform="translate(195 169)"></path><path d="M0 0 C2 1 2 1 2.74609375 2.9609375 C3.2054553 4.56481003 3.6637959 6.16897534 4.12109375 7.7734375 C5.08160363 10.20672919 5.94949166 11.39460201 8 13 C11.10839021 13.7269226 11.10839021 13.7269226 14 14 C14 14.66 14 15.32 14 16 C14.763125 16.12375 15.52625 16.2475 16.3125 16.375 C19 17 19 17 22 19 C22 19.66 22 20.32 22 21 C13.87278984 20.67294929 8.3574136 19.62247257 2.625 13.4375 C-0.40503711 8.89244434 -0.08632846 5.26603621 0 0 Z" fill="#FABF7D" transform="translate(138 99)"></path><path d="M0 0 C-0.85722656 0.21914062 -1.71445313 0.43828125 -2.59765625 0.6640625 C-11.49317004 3.13113848 -16.816646 5.52609708 -22.16796875 13.046875 C-24.74712198 17.69450054 -24.444204 22.25001241 -24.25 27.4375 C-24.23195312 28.35982422 -24.21390625 29.28214844 -24.1953125 30.23242188 C-24.14853601 32.48938733 -24.08301871 34.74412612 -24 37 C-27.42126965 33.57873035 -27.24254551 30.07850151 -27.375 25.4375 C-27.31218445 17.83681899 -25.68543982 12.09054179 -20.54296875 6.3828125 C-14.73551885 1.20360916 -7.7050408 -2.18254375 0 0 Z" fill="#F79521" transform="translate(159 74)"></path><path d="M0 0 C7.60344828 0.60344828 7.60344828 0.60344828 10 3 C10 3.99 10 4.98 10 6 C9.34 6 8.68 6 8 6 C7.54625 5.505 7.0925 5.01 6.625 4.5 C4.87871033 2.54781326 4.87871033 2.54781326 1 3 C0.67 3.66 0.34 4.32 0 5 C0.928125 5.28875 1.85625 5.5775 2.8125 5.875 C6 7 6 7 9 9 C8.125 13.875 8.125 13.875 7 15 C3.18318795 15.25445414 0.10380482 15.41407042 -3 13 C-3.75 10.375 -3.75 10.375 -4 8 C-3.34 8 -2.68 8 -2 8 C-2 8.99 -2 9.98 -2 11 C0.64 11.33 3.28 11.66 6 12 C6.33 11.34 6.66 10.68 7 10 C6.071875 9.71125 5.14375 9.4225 4.1875 9.125 C1 8 1 8 -2 6 C-1.125 1.125 -1.125 1.125 0 0 Z" fill="#1EACD8" transform="translate(52 178)"></path><path d="M0 0 C0 0.99 0 1.98 0 3 C-2.31 3.33 -4.62 3.66 -7 4 C-7.79953138 7.28696233 -8.09658936 8.71023192 -7 12 C-3.48809191 13.22969878 -3.48809191 13.22969878 0 14 C0 14.66 0 15.32 0 16 C-8.18462594 16.61770762 -8.18462594 16.61770762 -11.0625 14.4375 C-12.61990528 10.38824627 -12.58929501 6.72255464 -11.1875 2.625 C-8.52733347 -1.01522788 -4.0667925 -0.07673193 0 0 Z" fill="#000" transform="translate(193 51)"></path><path d="M0 0 C2.49361571 1.20381448 4.68143083 2.45428722 7 4 C9.41320403 11.23961209 8.30703218 18.26782735 5 25 C1.90625 28 1.90625 28 -1 28 C0.01485004 25.81416914 0.97351801 24.03096253 2.546875 22.19140625 C5.20110638 18.18865409 4.61981199 13.61923042 4 9 C2.9193419 6.36151009 1.61841873 4.3770525 0 2 C0 1.34 0 0.68 0 0 Z" fill="#FCCD97" transform="translate(169 86)"></path><path d="M0 0 C0.99386719 0.00902344 1.98773438 0.01804687 3.01171875 0.02734375 C4.15060547 0.04474609 4.15060547 0.04474609 5.3125 0.0625 C4.9825 2.0425 4.6525 4.0225 4.3125 6.0625 C3.6525 5.4025 2.9925 4.7425 2.3125 4.0625 C-2.70575028 3.58908016 -5.64512915 4.03072186 -9.6875 7.0625 C-10.244375 7.475 -10.80125 7.8875 -11.375 8.3125 C-13.36470422 10.96543896 -13.90650906 13.87846003 -14.6875 17.0625 C-15.3475 16.4025 -16.0075 15.7425 -16.6875 15.0625 C-16.20870881 9.15740871 -13.04764847 4.87762991 -8.6875 1.0625 C-5.53819107 0.01273036 -3.29935544 -0.03881595 0 0 Z" fill="#FADCB6" transform="translate(158.688 82.938)"></path><path d="M0 0 C3.125 0.25 3.125 0.25 5.0625 1.5 C6.125 3.25 6.125 3.25 6 5.25 C4.97699758 7.58829125 4.24867781 8.80893291 2.125 10.25 C-1.21692692 10.00546876 -2.48043557 9.64456443 -4.875 7.25 C-4.17222471 0.36280215 -4.17222471 0.36280215 0 0 Z" fill="#EBA13A" transform="translate(102.875 209.75)"></path><path d="M0 0 C0.66 0 1.32 0 2 0 C2 0.66 2 1.32 2 2 C3.1446875 2.1546875 3.1446875 2.1546875 4.3125 2.3125 C7.26644989 3.0681616 8.33726664 3.46214383 10 6 C10.5625 8.75 10.5625 8.75 10 12 C8.22412657 14.56343469 6.19588578 16.79104347 4 19 C3.67 18.01 3.34 17.02 3 16 C3.66 15.21625 4.32 14.4325 5 13.625 C7.33390113 11.17352693 7.33390113 11.17352693 6.75 8.1875 C6.5025 7.465625 6.255 6.74375 6 6 C3.36 6 0.72 6 -2 6 C-2.309375 6.61875 -2.61875 7.2375 -2.9375 7.875 C-3.625 9.25 -4.3125 10.625 -5 12 C-5.66 12 -6.32 12 -7 12 C-6.38271885 8.61638481 -5.13020282 6.47997439 -3.0625 3.75 C-2.53785156 3.04359375 -2.01320313 2.3371875 -1.47265625 1.609375 C-0.74369141 0.81273437 -0.74369141 0.81273437 0 0 Z" fill="#27ABD0" transform="translate(88 194)"></path><path d="M0 0 C0.66 0.66 1.32 1.32 2 2 C1.2265625 3.3303125 1.2265625 3.3303125 0.4375 4.6875 C-1.0868937 8.20023331 -1.14947895 9.44706507 0 13 C2.87364791 13.41746608 2.87364791 13.41746608 6 13 C7.89858275 10.69694835 7.89858275 10.69694835 9 8 C9.33 7.34 9.66 6.68 10 6 C10.66 6 11.32 6 12 6 C11.33501617 10.38889325 9.81242323 13.9811485 8 18 C-0.108305 16.70811073 -0.108305 16.70811073 -3.125 14.3125 C-4.42500997 10.87675935 -3.867281 8.53107266 -3 5 C-1.4375 2.0625 -1.4375 2.0625 0 0 Z" fill="#2FABCA" transform="translate(67 182)"></path><path d="M0 0 C0.66 0 1.32 0 2 0 C2.33 3.63 2.66 7.26 3 11 C4.98 11 6.96 11 9 11 C10.4216319 7.6828589 11.39009109 4.55780196 12 1 C12.66 1 13.32 1 14 1 C13.67 5.62 13.34 10.24 13 15 C12.34 15 11.68 15 11 15 C11 14.34 11 13.68 11 13 C10.01 13.495 10.01 13.495 9 14 C5.5625 14.3125 5.5625 14.3125 2 14 C-0.27624179 11.79010607 -0.9822235 10.61749959 -1.07421875 7.421875 C-0.94660156 6.54015625 -0.81898437 5.6584375 -0.6875 4.75 C-0.56761719 3.85796875 -0.44773437 2.9659375 -0.32421875 2.046875 C-0.21722656 1.37140625 -0.11023438 0.6959375 0 0 Z" fill="#0DADE4" transform="translate(24 173)"></path><path d="M0 0 C5.56818182 0.56818182 5.56818182 0.56818182 7 2 C7.04092937 4.33297433 7.04241723 6.66705225 7 9 C4.26752652 10.36623674 2.01801098 10.128426 -1 10 C-2 9 -2 9 -2.1875 5.5625 C-2 2 -2 2 0 0 Z" fill="#EEA138" transform="translate(11 174)"></path><path d="M0 0 C4.29 0 8.58 0 13 0 C13 0.99 13 1.98 13 3 C11.35 3 9.7 3 8 3 C8 7.29 8 11.58 8 16 C7.01 16 6.02 16 5 16 C5 11.71 5 7.42 5 3 C3.35 3 1.7 3 0 3 C0 2.01 0 1.02 0 0 Z" fill="#000" transform="translate(237 51)"></path><path d="M0 0 C1.08667969 0.02707031 2.17335937 0.05414063 3.29296875 0.08203125 C4.54013672 0.13423828 4.54013672 0.13423828 5.8125 0.1875 C0.7184081 6.89209519 0.7184081 6.89209519 -3.0625 8.125 C-3.76375 8.145625 -4.465 8.16625 -5.1875 8.1875 C-5.290625 7.548125 -5.39375 6.90875 -5.5 6.25 C-5.726875 5.569375 -5.95375 4.88875 -6.1875 4.1875 C-7.1775 3.8575 -8.1675 3.5275 -9.1875 3.1875 C-6.54246503 -0.34849411 -4.24021315 -0.13678107 0 0 Z" fill="#29A957" transform="translate(166.188 113.813)"></path><path d="M0 0 C-3.1994328 3.71134205 -6.3705719 5.42930118 -11 7 C-13.3125 6.9375 -13.3125 6.9375 -15 6 C-16.25 3.9375 -16.25 3.9375 -17 2 C-11.16200408 0.30167391 -6.06892629 -0.25287193 0 0 Z" fill="#39B771" transform="translate(166 104)"></path><path d="M0 0 C1.74216797 0.02707031 1.74216797 0.02707031 3.51953125 0.0546875 C4.39996094 0.07789062 5.28039062 0.10109375 6.1875 0.125 C6.1875 1.775 6.1875 3.425 6.1875 5.125 C5.8575 4.135 5.5275 3.145 5.1875 2.125 C-5.16027258 2.21688229 -5.16027258 2.21688229 -13.8125 7.125 C-14.32167969 7.56714844 -14.83085937 8.00929688 -15.35546875 8.46484375 C-17.12648329 10.48275576 -17.72119412 12.25356641 -18.5 14.8125 C-18.87705078 16.02486328 -18.87705078 16.02486328 -19.26171875 17.26171875 C-19.44347656 17.87660156 -19.62523437 18.49148437 -19.8125 19.125 C-20.1425 19.125 -20.4725 19.125 -20.8125 19.125 C-20.8125 13.14623973 -20.30797493 10.03671774 -16.0625 5.6875 C-11.02278211 0.92669779 -6.87622062 -0.13891355 0 0 Z" fill="#F9C07E" transform="translate(158.813 78.875)"></path><path d="M0 0 C4.0364974 1.34549913 4.86986428 3.35422005 7.1875 6.875 C7.90292969 7.94492188 8.61835938 9.01484375 9.35546875 10.1171875 C11 13 11 13 11 16 C9.26953125 15.8671875 9.26953125 15.8671875 7 15 C4.82421875 12.3828125 4.82421875 12.3828125 2.6875 9.125 C1.96949219 8.05507812 1.25148437 6.98515625 0.51171875 5.8828125 C0.01285156 4.93148437 -0.48601562 3.98015625 -1 3 C-0.67 2.01 -0.34 1.02 0 0 Z" fill="#FBAF40" transform="translate(168 176)"></path><path d="M0 0 C3 2 3 2 4 5 C4.72659871 10.69322283 4.78569182 15.70190398 1.6875 20.6875 C-0.46233397 23.23103851 -1.53401229 23.92009813 -4.84765625 24.48828125 C-7.61256042 24.4989841 -10.25910688 24.35114645 -13 24 C-13 23.67 -13 23.34 -13 23 C-12.39671875 22.98582031 -11.7934375 22.97164062 -11.171875 22.95703125 C-7.23625301 22.72216349 -4.7065068 22.5298801 -1.5 20.125 C1.49064291 13.89449393 1.62404627 6.67663468 0 0 Z" fill="#FBDCB6" transform="translate(170 90)"></path><path d="M0 0 C0.99 0 1.98 0 3 0 C3.32613281 0.60328125 3.65226563 1.2065625 3.98828125 1.828125 C4.42527344 2.62734375 4.86226562 3.4265625 5.3125 4.25 C5.74175781 5.03890625 6.17101562 5.8278125 6.61328125 6.640625 C7.94111977 9.03938991 7.94111977 9.03938991 9.73046875 11.109375 C10.14941406 11.73328125 10.56835938 12.3571875 11 13 C10.67 13.99 10.34 14.98 10 16 C6.19872403 14.52907147 4.7904198 12.59783572 2.75 9.125 C2.22921875 8.26132813 1.7084375 7.39765625 1.171875 6.5078125 C0 4 0 4 0 0 Z" fill="#FBAF40" transform="translate(173 173)"></path><path d="M0 0 C1.28835769 3.86507308 0.56002478 5.2856553 -1 9 C-3.52761331 12.58758018 -5.73317573 15.58500281 -10.26171875 16.4140625 C-11.06222656 16.48367187 -11.86273438 16.55328125 -12.6875 16.625 C-13.49574219 16.69976562 -14.30398437 16.77453125 -15.13671875 16.8515625 C-16.05904297 16.92503906 -16.05904297 16.92503906 -17 17 C-14.93035988 15.3902799 -12.92344969 13.95769588 -10.625 12.6875 C-5.62263741 9.47169548 -1.71609041 5.83470738 0 0 Z" fill="#F7A74B" transform="translate(180 105)"></path><path d="M0 0 C3.11963955 1.36018991 5.00834822 2.83260134 7.1875 5.4375 C7.69667969 6.03433594 8.20585937 6.63117188 8.73046875 7.24609375 C11.27952512 10.76771317 11.10759829 13.99335858 11.0625 18.1875 C11.05347656 19.27417969 11.04445312 20.36085938 11.03515625 21.48046875 C11.02355469 22.31191406 11.01195312 23.14335938 11 24 C10.34 24 9.68 24 9 24 C8.97421875 23.38253906 8.9484375 22.76507813 8.921875 22.12890625 C8.33910332 13.42706554 5.9159845 6.54983999 0 0 Z" fill="#F9A94F" transform="translate(171 81)"></path><path d="M0 0 C-1.40929697 3.47132095 -2.90605083 4.88093274 -6.125 6.75 C-6.84945312 7.17796875 -7.57390625 7.6059375 -8.3203125 8.046875 C-8.87460938 8.36140625 -9.42890625 8.6759375 -10 9 C-10.33 8.01 -10.66 7.02 -11 6 C-8.04900634 1.51886149 -5.477195 -1.82573167 0 0 Z" fill="#F7F5EB" transform="translate(160 90)"></path><path d="M0 0 C2.31 0.66 4.62 1.32 7 2 C6.38125 2.28875 5.7625 2.5775 5.125 2.875 C2.61227114 4.20526822 1.26083817 5.19816415 0.3671875 7.9453125 C0.20476563 8.66460937 0.04234375 9.38390625 -0.125 10.125 C-0.41375 11.40375 -0.7025 12.6825 -1 14 C-1.66 14 -2.32 14 -3 14 C-2.88512252 12.41590006 -2.75765492 10.83271037 -2.625 9.25 C-2.55539063 8.36828125 -2.48578125 7.4865625 -2.4140625 6.578125 C-2.00149945 4.00933618 -1.28839043 2.24158985 0 0 Z" fill="#2BABCD" transform="translate(43 175)"></path><path d="M0 0 C-0.33 0.99 -0.66 1.98 -1 3 C-1.53625 2.7525 -2.0725 2.505 -2.625 2.25 C-5.22310969 1.76104099 -5.22310969 1.76104099 -8.125 3.5625 C-11.31831066 6.26987208 -12.08621331 7.97933858 -13 12 C-13.66 12 -14.32 12 -15 12 C-13.85200257 3.82694367 -13.85200257 3.82694367 -10.875 0.9375 C-7.06219756 -0.30580514 -4.00194689 -0.20348883 0 0 Z" fill="#FCF0DE" transform="translate(162 88)"></path><path d="M0 0 C0.33 0 0.66 0 1 0 C1.08160748 1.89510699 1.13946459 3.79124504 1.1875 5.6875 C1.22230469 6.74324219 1.25710937 7.79898438 1.29296875 8.88671875 C0.79638057 14.16379584 -1.97470592 17.23981136 -5.6875 20.8125 C-6.31011719 21.41707031 -6.93273437 22.02164063 -7.57421875 22.64453125 C-8.04472656 23.09183594 -8.51523438 23.53914063 -9 24 C-9.66 23.67 -10.32 23.34 -11 23 C-10.01 22.01 -9.02 21.02 -8 20 C-8.33 19.34 -8.66 18.68 -9 18 C-8.236875 17.773125 -7.47375 17.54625 -6.6875 17.3125 C-3.20051592 15.60955429 -2.47193929 14.60625127 -1 11 C-0.46912584 7.34057615 -0.18749697 3.69175067 0 0 Z" fill="#EDB366" transform="translate(179 95)"></path><path d="M0 0 C0.66 0 1.32 0 2 0 C2.02578125 0.77085937 2.0515625 1.54171875 2.078125 2.3359375 C2.13484375 3.33882812 2.1915625 4.34171875 2.25 5.375 C2.29640625 6.37273437 2.3428125 7.37046875 2.390625 8.3984375 C2.72160885 11.1526477 2.72160885 11.1526477 5.046875 12.3515625 C5.69140625 12.56554687 6.3359375 12.77953125 7 13 C5.35 13.33 3.7 13.66 2 14 C-0.07384637 11.71823587 -0.98397191 10.55676517 -1.07421875 7.421875 C-0.94660156 6.54015625 -0.81898437 5.6584375 -0.6875 4.75 C-0.56761719 3.85796875 -0.44773437 2.9659375 -0.32421875 2.046875 C-0.21722656 1.37140625 -0.11023438 0.6959375 0 0 Z" fill="#2CABCC" transform="translate(24 173)"></path><path d="M0 0 C1.6875 1.4375 1.6875 1.4375 3 4 C2.36229831 8.71048984 1.11367016 12.1453229 -2.6875 15.0625 C-3.450625 15.371875 -4.21375 15.68125 -5 16 C-5 13 -5 13 -3.625 11.375 C-1.23705126 7.88492107 -0.74719919 4.11399083 0 0 Z" fill="#3CAD5F" transform="translate(165 78)"></path><path d="M0 0 C0.66 0.33 1.32 0.66 2 1 C0.25736814 3.95719346 -1.50873331 6.62339412 -4 9 C-6.96771342 9.72331367 -8.91387062 9.42567302 -12 9 C-8 6 -4 3 0 0 Z" fill="#F5EDD9" transform="translate(168 102)"></path><path d="M0 0 C0.66 0 1.32 0 2 0 C0.62992438 3.65573061 -1.01017865 6.95467647 -3 10.3125 C-3.515625 11.19550781 -4.03125 12.07851562 -4.5625 12.98828125 C-5.036875 13.65214844 -5.51125 14.31601563 -6 15 C-6.66 15 -7.32 15 -8 15 C-7.341781 11.21298657 -5.61103933 8.46974164 -3.5625 5.25 C-2.94503906 4.26515625 -2.32757813 3.2803125 -1.69140625 2.265625 C-1.13324219 1.51796875 -0.57507813 0.7703125 0 0 Z" fill="#1BACDA" transform="translate(85 188)"></path><path d="M0 0 C0.33 0 0.66 0 1 0 C1.29354096 3.05282597 1.4251429 5.95576688 1 9 C-1.66012492 11.95569436 -4.05946397 13.41621688 -8 14 C-7.67 13.34 -7.34 12.68 -7 12 C-6.34 12 -5.68 12 -5 12 C-4.67 10.68 -4.34 9.36 -4 8 C-3.34 8 -2.68 8 -2 8 C-1.34 5.36 -0.68 2.72 0 0 Z" fill="#1EAF62" transform="translate(167 83)"></path><path d="M0 0 C0.66 0 1.32 0 2 0 C1.33501617 4.38889325 -0.18757677 7.9811485 -2 12 C-2.66 12 -3.32 12 -4 12 C-4 11.34 -4 10.68 -4 10 C-5.32 9.67 -6.64 9.34 -8 9 C-7.236875 8.62875 -6.47375 8.2575 -5.6875 7.875 C-2.47956885 5.6369085 -1.5022184 3.55788567 0 0 Z" fill="#16ACDD" transform="translate(77 188)"></path><path d="M0 0 C0.99 0.33 1.98 0.66 3 1 C3.46557346 4.18141867 3.50963377 6.25343123 1.6640625 8.95703125 C0.15741976 10.6935608 -1.37936464 12.369718 -3 14 C-3.33 13.01 -3.66 12.02 -4 11 C-3.360625 10.236875 -2.72125 9.47375 -2.0625 8.6875 C0.38588343 5.49718219 0.3646381 3.91985956 0 0 Z" fill="#17ACDD" transform="translate(95 199)"></path><path d="M0 0 C2 1 2 1 2.74609375 2.92578125 C2.97425781 3.71339844 3.20242187 4.50101562 3.4375 5.3125 C4.50286959 8.72603113 5.54890342 11.31546565 8 14 C6.68 13.67 5.36 13.34 4 13 C4 12.34 4 11.68 4 11 C3.01 11 2.02 11 1 11 C-0.28317892 7.15046324 -0.06643637 4.05261865 0 0 Z" fill="#EAC181" transform="translate(138 99)"></path><path d="M0 0 C2.69652159 0.98872458 3.79023547 1.59212453 5.125 4.1875 C6.11804144 7.37941892 6.19830189 9.97726403 6.125 13.3125 C6.10695312 14.38113281 6.08890625 15.44976562 6.0703125 16.55078125 C6.03550781 17.76314453 6.03550781 17.76314453 6 19 C5.67 19 5.34 19 5 19 C4.89042969 18.10796875 4.78085938 17.2159375 4.66796875 16.296875 C4.43013672 14.54117188 4.43013672 14.54117188 4.1875 12.75 C3.96126953 11.00976562 3.96126953 11.00976562 3.73046875 9.234375 C2.99525451 5.97898789 2.09986236 4.50832874 0 2 C0 1.34 0 0.68 0 0 Z" fill="#FDD3A4" transform="translate(169 86)"></path><path d="M0 0 C1.98 0 3.96 0 6 0 C6 0.66 6 1.32 6 2 C6.804375 2.12375 7.60875 2.2475 8.4375 2.375 C9.7059375 2.684375 9.7059375 2.684375 11 3 C11.33 3.66 11.66 4.32 12 5 C3.42857143 4.14285714 3.42857143 4.14285714 0 2 C0 1.34 0 0.68 0 0 Z" fill="#ECCC95" transform="translate(146 113)"></path><path d="M0 0 C1.32 0.33 2.64 0.66 4 1 C3.67 3.31 3.34 5.62 3 8 C2.67 8 2.34 8 2 8 C1.67 11.3 1.34 14.6 1 18 C0.67 18 0.34 18 0 18 C0 12.06 0 6.12 0 0 Z" fill="#46AAB9" transform="translate(6 173)"></path><path d="M0 0 C-1.485 1.485 -1.485 1.485 -3 3 C-3.33 2.34 -3.66 1.68 -4 1 C-5.0828125 1.7115625 -5.0828125 1.7115625 -6.1875 2.4375 C-8.89475226 3.94152903 -10.96194275 4.56599182 -14 5 C-14.33 4.34 -14.66 3.68 -15 3 C-9.8531808 -0.16727335 -5.841744 -0.35050464 0 0 Z" fill="#59C288" transform="translate(166 104)"></path><path d="M0 0 C1.875 0.125 1.875 0.125 4 1 C5.25 4.0625 5.25 4.0625 6 7 C4.35 6.01 2.7 5.02 1 4 C1.33 4.66 1.66 5.32 2 6 C2.039992 7.99960012 2.04346799 10.00047242 2 12 C-0.60018816 8.09971775 -0.15085514 4.52565431 0 0 Z" fill="#D0C487" transform="translate(168 82)"></path><path d="M0 0 C0 3.99476331 -1.28869085 5.1421336 -4 8 C-6.75 9.3125 -6.75 9.3125 -9 10 C-8.06409496 8.8944811 -7.12620142 7.79064547 -6.1875 6.6875 C-5.66542969 6.07261719 -5.14335937 5.45773438 -4.60546875 4.82421875 C-3.12827531 3.14575321 -1.59960869 1.56117966 0 0 Z" fill="#F89B2F" transform="translate(179 111)"></path><path d="M0 0 C0 0.33 0 0.66 0 1 C-2.31 1.33 -4.62 1.66 -7 2 C-7.33 3.32 -7.66 4.64 -8 6 C-8 5.34 -8 4.68 -8 4 C-8.99 3.67 -9.98 3.34 -11 3 C-8.21756596 -1.17365106 -4.53441502 -0.22300402 0 0 Z" fill="#5CB66E" transform="translate(168 114)"></path><path d="M0 0 C0.33 0.99 0.66 1.98 1 3 C-1 5 -1 5 -3.1640625 5.1953125 C-4.38222656 5.16050781 -4.38222656 5.16050781 -5.625 5.125 C-6.44226563 5.10695313 -7.25953125 5.08890625 -8.1015625 5.0703125 C-8.72804687 5.04710938 -9.35453125 5.02390625 -10 5 C-10 4.67 -10 4.34 -10 4 C-9.36191406 3.79503906 -8.72382813 3.59007813 -8.06640625 3.37890625 C-7.24011719 3.10949219 -6.41382813 2.84007813 -5.5625 2.5625 C-4.73878906 2.29566406 -3.91507813 2.02882813 -3.06640625 1.75390625 C-1.03780412 1.17844506 -1.03780412 1.17844506 0 0 Z" fill="#01A651" transform="translate(168 97)"></path><path d="M0 0 C0.33 0 0.66 0 1 0 C2.88178944 5.9589999 3.19671115 9.14210361 1 15 C0.67 15 0.34 15 0 15 C0 10.05 0 5.1 0 0 Z" fill="#04ADEB" transform="translate(7 176)"></path><path d="M0 0 C0.66 0 1.32 0 2 0 C4 5.625 4 5.625 4 9 C0.06153846 5.67692308 0.06153846 5.67692308 -0.25 2.25 C-0.1675 1.5075 -0.085 0.765 0 0 Z" fill="#0DADE4" transform="translate(96 212)"></path><path d="M0 0 C0.66 0 1.32 0 2 0 C2.1875 3.375 2.1875 3.375 2 7 C1.01 7.66 0.02 8.32 -1 9 C-0.67 6.03 -0.34 3.06 0 0 Z" fill="#20ACD6" transform="translate(36 174)"></path><path d="M0 0 C4.22271781 2.53363068 6.78310162 4.56620325 9 9 C5.18063472 7.44396229 2.73955562 5.04395069 0 2 C0 1.34 0 0.68 0 0 Z" fill="#F9A950" transform="translate(137 110)"></path><path d="M0 0 C0.99 0 1.98 0 3 0 C2.8125 1.8125 2.8125 1.8125 2 4 C-0.5625 5.75 -0.5625 5.75 -3 7 C-3 3.47190093 -2.35723489 2.53184488 0 0 Z" fill="#34B56E" transform="translate(163 87)"></path><path d="M0 0 C2.02054804 1.64169528 4.02043058 3.30911778 6 5 C6 5.33 6 5.66 6 6 C4.35 6 2.7 6 1 6 C-0.0625 4.125 -0.0625 4.125 -1 2 C-0.67 1.34 -0.34 0.68 0 0 Z" fill="#E2A241" transform="translate(96 217)"></path><path d="M0 0 C0.33 0 0.66 0 1 0 C0.67 2.97 0.34 5.94 0 9 C-0.66 9 -1.32 9 -2 9 C-1.125 1.125 -1.125 1.125 0 0 Z" fill="#19ACDB" transform="translate(42 180)"></path><path d="M0 0 C2.97 0 5.94 0 9 0 C9 0.66 9 1.32 9 2 C3.375 3.125 3.375 3.125 0 2 C0 1.34 0 0.68 0 0 Z" fill="#1DACD8" transform="translate(7 172)"></path><path d="M0 0 C3.29148243 1.13499394 3.9959869 1.99283376 5.75 5.125 C6.1625 6.07375 6.575 7.0225 7 8 C3.64379729 6.61122646 1.92701272 5.08322035 0 2 C0 1.34 0 0.68 0 0 Z" fill="#F79623" transform="translate(135 111)"></path></g>
        </symbol>
        <symbol id="give" viewBox="0 0 512 512">
            <title>give</title><g fill="auto"><g transform="matrix(.1 0 0 -.1 0 512)" stroke="none"><path d="M2010 5063 c-441 -69 -809 -331 -999 -711 -47 -94 -98 -254 -117 -367 -21 -132 -14 -364 15 -481 59 -239 165 -436 330 -616 51 -56 51 -57 21 -48 -22 6 -175 -10 -560 -60 -571 -74 -578 -76 -637 -143 -68 -77 -64 4 -61 -1304 3 -1181 3 -1182 24 -1210 34 -45 82 -73 129 -73 27 0 215 59 556 174 850 288 810 273 846 308 40 38 57 87 50 139 l-5 39 1026 2 1027 3 630 340 c572 309 636 345 691 400 188 185 186 486 -4 667 -70 68 -141 105 -236 124 -113 24 -157 14 -525 -117 -184 -66 -336 -118 -337 -116 -2 2 206 209 461 460 498 491 559 560 644 731 101 203 136 352 136 581 -1 174 -14 260 -64 408 -154 454 -547 783 -1030 863 -125 20 -376 15 -481 -11 -173 -42 -345 -116 -468 -201 -35 -24 -67 -44 -71 -44 -5 0 -39 21 -77 46 -151 101 -342 178 -520 209 -79 14 -326 19 -394 8z m443 -347 c163 -49 258 -101 404 -224 119 -99 166 -97 298 13 110 91 204 146 326 189 131 47 222 60 381 53 196 -7 341 -54 503 -162 203 -135 340 -329 407 -573 31 -113 31 -333 0 -457 -28 -111 -103 -268 -170 -355 -28 -36 -349 -359 -713 -717 l-662 -653 -386 0 c-322 0 -382 2 -366 13 11 7 126 74 254 148 319 182 394 255 445 428 33 113 15 278 -42 385 -38 72 -154 185 -224 219 -127 61 -275 71 -400 28 -31 -10 -178 -90 -328 -176 -149 -87 -279 -159 -288 -162 -22 -5 -474 449 -529 532 -121 181 -171 363 -160 588 18 387 267 723 636 858 138 50 198 59 371 55 133 -3 168 -7 243 -30z m-959 -2164 c-48 -2 -89 -1 -91 2 -3 3 -9 38 -13 78 -5 41 -12 87 -15 103 -6 26 8 15 99 -75 l106 -105 -86 -3z m1238 198 c140 -39 186 -232 80 -333 -15 -14 -169 -107 -342 -207 -173 -100 -327 -193 -343 -208 -41 -39 -49 -81 -45 -244 3 -162 9 -179 78 -226 l34 -22 630 2 631 3 570 206 c314 114 584 210 602 213 42 9 113 -21 141 -61 52 -73 30 -170 -49 -216 -24 -14 -294 -161 -599 -326 l-555 -301 -1000 3 -1000 2 -62 560 c-34 308 -62 577 -63 597 l0 36 138 4 137 3 428 248 c236 137 443 255 460 262 39 17 79 18 129 5z m-1551 -1142 c51 -467 90 -850 87 -853 -3 -3 -217 -77 -477 -165 l-471 -160 0 990 c0 936 1 990 18 991 9 0 179 22 377 48 l360 47 7 -25 c3 -14 48 -407 99 -873z"></path><path d="M735 1266 c-101 -44 -125 -178 -46 -257 65 -65 157 -65 222 0 124 124 -15 327 -176 257z"></path></g></g>
        </symbol>
        <symbol id="menu" viewBox="0 0 16 16">
            <title>menu-button-wide</title><g><path d="M0 1.5A1.5 1.5 0 0 1 1.5 0h13A1.5 1.5 0 0 1 16 1.5v2A1.5 1.5 0 0 1 14.5 5h-13A1.5 1.5 0 0 1 0 3.5zM1.5 1a.5.5 0 0 0-.5.5v2a.5.5 0 0 0 .5.5h13a.5.5 0 0 0 .5-.5v-2a.5.5 0 0 0-.5-.5z"></path><path d="M2 2.5a.5.5 0 0 1 .5-.5h3a.5.5 0 0 1 0 1h-3a.5.5 0 0 1-.5-.5m10.823.323-.396-.396A.25.25 0 0 1 12.604 2h.792a.25.25 0 0 1 .177.427l-.396.396a.25.25 0 0 1-.354 0M0 8a2 2 0 0 1 2-2h12a2 2 0 0 1 2 2v5a2 2 0 0 1-2 2H2a2 2 0 0 1-2-2zm1 3v2a1 1 0 0 0 1 1h12a1 1 0 0 0 1-1v-2zm14-1V8a1 1 0 0 0-1-1H2a1 1 0 0 0-1 1v2zM2 8.5a.5.5 0 0 1 .5-.5h9a.5.5 0 0 1 0 1h-9a.5.5 0 0 1-.5-.5m0 4a.5.5 0 0 1 .5-.5h6a.5.5 0 0 1 0 1h-6a.5.5 0 0 1-.5-.5"></path></g>
        </symbol>
        <symbol id="search" viewBox="0 0 16 16">
            <title>search</title><g fill="#212121"><path d="M11.742 10.344a6.5 6.5 0 1 0-1.397 1.398h-.001q.044.06.098.115l3.85 3.85a1 1 0 0 0 1.415-1.414l-3.85-3.85a1 1 0 0 0-.115-.1zM12 6.5a5.5 5.5 0 1 1-11 0 5.5 5.5 0 0 1 11 0"></path></g>
        </symbol>
        <symbol id="eye" viewBox="0 0 576 512">
            <title>eye</title><g fill="#f5a133"><path d="M288 32c-80.8 0-145.5 36.8-192.6 80.6C48.6 156 17.3 208 2.5 243.7c-3.3 7.9-3.3 16.7 0 24.6C17.3 304 48.6 356 95.4 399.4C142.5 443.2 207.2 480 288 480s145.5-36.8 192.6-80.6c46.8-43.5 78.1-95.4 93-131.1c3.3-7.9 3.3-16.7 0-24.6c-14.9-35.7-46.2-87.7-93-131.1C433.5 68.8 368.8 32 288 32zM144 256a144 144 0 1 1 288 0 144 144 0 1 1 -288 0zm144-64c0 35.3-28.7 64-64 64c-7.1 0-13.9-1.2-20.3-3.3c-5.5-1.8-11.9 1.6-11.7 7.4c.3 6.9 1.3 13.8 3.2 20.7c13.7 51.2 66.4 81.6 117.6 67.9s81.6-66.4 67.9-117.6c-11.1-41.5-47.8-69.4-88.6-71.1c-5.8-.2-9.2 6.1-7.4 11.7c2.1 6.4 3.3 13.2 3.3 20.3z"></path></g>
        </symbol>
        <symbol id="rocket" viewBox="0 0 512 512">
            <title>rocket</title><g fill="#25aae1"><path d="M328.85,156.79a26.69,26.69,0,1,0,18.88,7.81A26.6,26.6,0,0,0,328.85,156.79Z"></path><path d="M477.44,50.06a.29.29,0,0,1,0-.09,20.4,20.4,0,0,0-15.13-15.3c-29.8-7.27-76.68.48-128.63,21.28-52.36,21-101.42,52-134.58,85.22A320.7,320.7,0,0,0,169.55,175c-22.33-1-42,2.18-58.57,9.41-57.74,25.41-74.23,90.44-78.62,117.14a25,25,0,0,0,27.19,29h.13L124,323.53c.08.82.17,1.57.24,2.26a34.36,34.36,0,0,0,9.9,20.72l31.39,31.41a34.27,34.27,0,0,0,20.71,9.91l2.15.23-7,64.24s0,.08,0,.13A25,25,0,0,0,206,480a25.25,25.25,0,0,0,4.15-.34C237,475.34,302,459.05,327.34,401c7.17-16.46,10.34-36.05,9.45-58.34a314.78,314.78,0,0,0,33.95-29.55c33.43-33.26,64.53-81.92,85.31-133.52C476.74,128.23,484.53,81,477.44,50.06ZM370.38,224.94a58.77,58.77,0,1,1,0-83.07A58.3,58.3,0,0,1,370.38,224.94Z"></path><path d="M161.93,386.44a16,16,0,0,0-11,2.67c-6.39,4.37-12.81,8.69-19.29,12.9-13.11,8.52-28.79-6.44-21-20l12.15-21a16,16,0,0,0-15.16-24.91A61.25,61.25,0,0,0,72,353.56c-3.66,3.67-14.79,14.81-20.78,57.26A357.94,357.94,0,0,0,48,447.59,16,16,0,0,0,64,464h.4a359.87,359.87,0,0,0,36.8-3.2c42.47-6,53.61-17.14,57.27-20.8a60.49,60.49,0,0,0,17.39-35.74A16,16,0,0,0,161.93,386.44Z"></path></g>
        </symbol>
        <symbol id="bullseye" viewBox="0 0 512 512">
            <title>bullseye</title><g fill="#00a651"><path d="M448 256A192 192 0 1 0 64 256a192 192 0 1 0 384 0zM0 256a256 256 0 1 1 512 0A256 256 0 1 1 0 256zm256 80a80 80 0 1 0 0-160 80 80 0 1 0 0 160zm0-224a144 144 0 1 1 0 288 144 144 0 1 1 0-288zM224 256a32 32 0 1 1 64 0 32 32 0 1 1 -64 0z"></path></g>
        </symbol>
        <symbol id="person?" viewBox="0 0 16 16">
            <title>person-raised-hand</title><g fill="#a16868"><path d="M6 6.207v9.043a.75.75 0 0 0 1.5 0V10.5a.5.5 0 0 1 1 0v4.75a.75.75 0 0 0 1.5 0v-8.5a.25.25 0 1 1 .5 0v2.5a.75.75 0 0 0 1.5 0V6.5a3 3 0 0 0-3-3H6.236a1 1 0 0 1-.447-.106l-.33-.165A.83.83 0 0 1 5 2.488V.75a.75.75 0 0 0-1.5 0v2.083c0 .715.404 1.37 1.044 1.689L5.5 5c.32.32.5.754.5 1.207"></path><path d="M8 3a1.5 1.5 0 1 0 0-3 1.5 1.5 0 0 0 0 3"></path></g>
        </symbol>
        <symbol id="facebook" viewBox="0 0 448 512">
            <title>square-facebook</title><g fill="#1877F2"><path d="M64 32C28.7 32 0 60.7 0 96V416c0 35.3 28.7 64 64 64h98.2V334.2H109.4V256h52.8V222.3c0-87.1 39.4-127.5 125-127.5c16.2 0 44.2 3.2 55.7 6.4V172c-6-.6-16.5-1-29.6-1c-42 0-58.2 15.9-58.2 57.2V256h83.6l-14.4 78.2H255V480H384c35.3 0 64-28.7 64-64V96c0-35.3-28.7-64-64-64H64z"></path></g>
        </symbol>
        <symbol id="whatsapp" fill="#25D366" class="bi bi-whatsapp" viewBox="0 0 16 16">
            <path d="M13.601 2.326A7.85 7.85 0 0 0 7.994 0C3.627 0 .068 3.558.064 7.926c0 1.399.366 2.76 1.057 3.965L0 16l4.204-1.102a7.9 7.9 0 0 0 3.79.965h.004c4.368 0 7.926-3.558 7.93-7.93A7.9 7.9 0 0 0 13.6 2.326zM7.994 14.521a6.6 6.6 0 0 1-3.356-.92l-.24-.144-2.494.654.666-2.433-.156-.251a6.56 6.56 0 0 1-1.007-3.505c0-3.626 2.957-6.584 6.591-6.584a6.56 6.56 0 0 1 4.66 1.931 6.56 6.56 0 0 1 1.928 4.66c-.004 3.639-2.961 6.592-6.592 6.592m3.615-4.934c-.197-.099-1.17-.578-1.353-.646-.182-.065-.315-.099-.445.099-.133.197-.513.646-.627.775-.114.133-.232.148-.43.05-.197-.1-.836-.308-1.592-.985-.59-.525-.985-1.175-1.103-1.372-.114-.198-.011-.304.088-.403.087-.088.197-.232.296-.346.1-.114.133-.198.198-.33.065-.134.034-.248-.015-.347-.05-.099-.445-1.076-.612-1.47-.16-.389-.323-.335-.445-.34-.114-.007-.247-.007-.38-.007a.73.73 0 0 0-.529.247c-.182.198-.691.677-.691 1.654s.71 1.916.81 2.049c.098.133 1.394 2.132 3.383 2.992.47.205.84.326 1.129.418.475.152.904.129 1.246.08.38-.058 1.171-.48 1.338-.943.164-.464.164-.86.114-.943-.049-.084-.182-.133-.38-.232"/>
        </symbol>
        <symbol id="youtube" viewBox="0 0 512 512">
            <title>logo-youtube</title><g fill="#FF0000"><path d="M508.64,148.79c0-45-33.1-81.2-74-81.2C379.24,65,322.74,64,265,64H247c-57.6,0-114.2,1-169.6,3.6-40.8,0-73.9,36.4-73.9,81.4C1,184.59-.06,220.19,0,255.79q-.15,53.4,3.4,106.9c0,45,33.1,81.5,73.9,81.5,58.2,2.7,117.9,3.9,178.6,3.8q91.2.3,178.6-3.8c40.9,0,74-36.5,74-81.5,2.4-35.7,3.5-71.3,3.4-107Q512.24,202.29,508.64,148.79ZM207,353.89V157.39l145,98.2Z"></path></g>
        </symbol>
        <symbol id="instagram" viewBox="0 0 48 48">
            <title>icons8-instagram</title><g><path fill="#304ffe" d="M41.67,13.48c-0.4,0.26-0.97,0.5-1.21,0.77c-0.09,0.09-0.14,0.19-0.12,0.29v1.03l-0.3,1.01l-0.3,1l-0.33,1.1 l-0.68,2.25l-0.66,2.22l-0.5,1.67c0,0.26-0.01,0.52-0.03,0.77c-0.07,0.96-0.27,1.88-0.59,2.74c-0.19,0.53-0.42,1.04-0.7,1.52 c-0.1,0.19-0.22,0.38-0.34,0.56c-0.4,0.63-0.88,1.21-1.41,1.72c-0.41,0.41-0.86,0.79-1.35,1.11c0,0,0,0-0.01,0 c-0.08,0.07-0.17,0.13-0.27,0.18c-0.31,0.21-0.64,0.39-0.98,0.55c-0.23,0.12-0.46,0.22-0.7,0.31c-0.05,0.03-0.11,0.05-0.16,0.07 c-0.57,0.27-1.23,0.45-1.89,0.54c-0.04,0.01-0.07,0.01-0.11,0.02c-0.4,0.07-0.79,0.13-1.19,0.16c-0.18,0.02-0.37,0.03-0.55,0.03 l-0.71-0.04l-3.42-0.18c0-0.01-0.01,0-0.01,0l-1.72-0.09c-0.13,0-0.27,0-0.4-0.01c-0.54-0.02-1.06-0.08-1.58-0.19 c-0.01,0-0.01,0-0.01,0c-0.95-0.18-1.86-0.5-2.71-0.93c-0.47-0.24-0.93-0.51-1.36-0.82c-0.18-0.13-0.35-0.27-0.52-0.42 c-0.48-0.4-0.91-0.83-1.31-1.27c-0.06-0.06-0.11-0.12-0.16-0.18c-0.06-0.06-0.12-0.13-0.17-0.19c-0.38-0.48-0.7-0.97-0.96-1.49 c-0.24-0.46-0.43-0.95-0.58-1.49c-0.06-0.19-0.11-0.37-0.15-0.57c-0.01-0.01-0.02-0.03-0.02-0.05c-0.1-0.41-0.19-0.84-0.24-1.27 c-0.06-0.33-0.09-0.66-0.09-1c-0.02-0.13-0.02-0.27-0.02-0.4l1.91-2.95l1.87-2.88l0.85-1.31l0.77-1.18l0.26-0.41v-1.03 c0.02-0.23,0.03-0.47,0.02-0.69c-0.01-0.7-0.15-1.38-0.38-2.03c-0.22-0.69-0.53-1.34-0.85-1.94c-0.38-0.69-0.78-1.31-1.11-1.87 C14,7.4,13.66,6.73,13.75,6.26C14.47,6.09,15.23,6,16,6h16c4.18,0,7.78,2.6,9.27,6.26C41.43,12.65,41.57,13.06,41.67,13.48z"></path><path fill="#4928f4" d="M42,16v0.27l-1.38,0.8l-0.88,0.51l-0.97,0.56l-1.94,1.13l-1.9,1.1l-1.94,1.12l-0.77,0.45 c0,0.48-0.12,0.92-0.34,1.32c-0.31,0.58-0.83,1.06-1.49,1.47c-0.67,0.41-1.49,0.74-2.41,0.98c0,0,0-0.01-0.01,0 c-3.56,0.92-8.42,0.5-10.78-1.26c-0.66-0.49-1.12-1.09-1.32-1.78c-0.06-0.23-0.09-0.48-0.09-0.73v-7.19 c0.01-0.15-0.09-0.3-0.27-0.45c-0.54-0.43-1.81-0.84-3.23-1.25c-1.11-0.31-2.3-0.62-3.3-0.92c-0.79-0.24-1.46-0.48-1.86-0.71 c0.18-0.35,0.39-0.7,0.61-1.03c1.4-2.05,3.54-3.56,6.02-4.13C14.47,6.09,15.23,6,16,6h10.8c5.37,0.94,10.32,3.13,14.47,6.26 c0.16,0.39,0.3,0.8,0.4,1.22c0.18,0.66,0.29,1.34,0.32,2.05C42,15.68,42,15.84,42,16z"></path><path fill="#6200ea" d="M42,16v4.41l-0.22,0.68l-0.75,2.33l-0.78,2.4l-0.41,1.28l-0.38,1.19l-0.37,1.13l-0.36,1.12l-0.19,0.59 l-0.25,0.78c0,0.76-0.02,1.43-0.07,2c-0.01,0.06-0.02,0.12-0.02,0.18c-0.06,0.53-0.14,0.98-0.27,1.36 c-0.01,0.06-0.03,0.12-0.05,0.17c-0.26,0.72-0.65,1.18-1.23,1.48c-0.14,0.08-0.3,0.14-0.47,0.2c-0.53,0.18-1.2,0.27-2.02,0.32 c-0.6,0.04-1.29,0.05-2.07,0.05H31.4l-1.19-0.05L30,37.61l-2.17-0.09l-2.2-0.09l-7.25-0.3l-1.88-0.08h-0.26 c-0.78-0.01-1.45-0.06-2.03-0.14c-0.84-0.13-1.49-0.35-1.98-0.68c-0.7-0.45-1.11-1.11-1.35-2.03c-0.06-0.22-0.11-0.45-0.14-0.7 c-0.1-0.58-0.15-1.25-0.18-2c0-0.15,0-0.3-0.01-0.46c-0.01-0.01,0-0.01,0-0.01v-0.58c-0.01-0.29-0.01-0.59-0.01-0.9l0.05-1.61 l0.03-1.15l0.04-1.34v-0.19l0.07-2.46l0.07-2.46l0.07-2.31l0.06-2.27l0.02-0.6c0-0.31-1.05-0.49-2.22-0.64 c-0.93-0.12-1.95-0.23-2.56-0.37c0.05-0.23,0.1-0.46,0.16-0.68c0.18-0.72,0.45-1.4,0.79-2.05c0.18-0.35,0.39-0.7,0.61-1.03 c2.16-0.95,4.41-1.69,6.76-2.17c2.06-0.43,4.21-0.66,6.43-0.66c7.36,0,14.16,2.49,19.54,6.69c0.52,0.4,1.03,0.83,1.53,1.28 C42,15.68,42,15.84,42,16z"></path><path fill="#673ab7" d="M42,18.37v4.54l-0.55,1.06l-1.05,2.05l-0.56,1.08l-0.51,0.99l-0.22,0.43c0,0.31,0,0.61-0.02,0.9 c0,0.43-0.02,0.84-0.05,1.22c-0.04,0.45-0.1,0.86-0.16,1.24c-0.15,0.79-0.36,1.47-0.66,2.03c-0.04,0.07-0.08,0.14-0.12,0.2 c-0.11,0.18-0.24,0.35-0.38,0.51c-0.18,0.22-0.38,0.41-0.61,0.57c-0.34,0.26-0.74,0.47-1.2,0.63c-0.57,0.21-1.23,0.35-2.01,0.43 c-0.51,0.05-1.07,0.08-1.68,0.08l-0.42,0.02l-2.08,0.12h-0.01L27.5,36.6l-2.25,0.13l-3.1,0.18l-3.77,0.22l-0.55,0.03 c-0.51,0-0.99-0.03-1.45-0.09c-0.05-0.01-0.09-0.02-0.14-0.02c-0.68-0.11-1.3-0.29-1.86-0.54c-0.68-0.3-1.27-0.7-1.77-1.18 c-0.44-0.43-0.82-0.92-1.13-1.47c-0.07-0.13-0.14-0.25-0.2-0.39c-0.3-0.59-0.54-1.25-0.72-1.97c-0.03-0.12-0.06-0.25-0.08-0.38 c-0.06-0.23-0.11-0.47-0.14-0.72c-0.11-0.64-0.17-1.32-0.2-2.03v-0.01c-0.01-0.29-0.02-0.57-0.02-0.87l-0.49-1.17l-0.07-0.18 L9.5,25.99L8.75,24.2l-0.12-0.29l-0.72-1.73l-0.8-1.93c0,0,0,0-0.01,0L6.29,18.3L6,17.59V16c0-0.63,0.06-1.25,0.17-1.85 c0.05-0.23,0.1-0.46,0.16-0.68c0.85-0.49,1.74-0.94,2.65-1.34c2.08-0.93,4.31-1.62,6.62-2.04c1.72-0.31,3.51-0.48,5.32-0.48 c7.31,0,13.94,2.65,19.12,6.97c0.2,0.16,0.39,0.32,0.58,0.49C41.09,17.48,41.55,17.91,42,18.37z"></path><path fill="#8e24aa" d="M42,21.35v5.14l-0.57,1.19l-1.08,2.25l-0.01,0.03c0,0.43-0.02,0.82-0.05,1.17c-0.1,1.15-0.38,1.88-0.84,2.33 c-0.33,0.34-0.74,0.53-1.25,0.63c-0.03,0.01-0.07,0.01-0.1,0.02c-0.16,0.03-0.33,0.05-0.51,0.05c-0.62,0.06-1.35,0.02-2.19-0.04 c-0.09,0-0.19-0.01-0.29-0.02c-0.61-0.04-1.26-0.08-1.98-0.11c-0.39-0.01-0.8-0.02-1.22-0.02h-0.02l-1.01,0.08h-0.01l-2.27,0.16 l-2.59,0.2l-0.38,0.03l-3.03,0.22l-1.57,0.12l-1.55,0.11c-0.27,0-0.53,0-0.79-0.01c0,0-0.01-0.01-0.01,0 c-1.13-0.02-2.14-0.09-3.04-0.26c-0.83-0.14-1.56-0.36-2.18-0.69c-0.64-0.31-1.17-0.75-1.6-1.31c-0.41-0.55-0.71-1.24-0.9-2.07 c0-0.01,0-0.01,0-0.01c-0.14-0.67-0.22-1.45-0.22-2.33l-0.15-0.27L9.7,26.35l-0.13-0.22L9.5,25.99l-0.93-1.65l-0.46-0.83 l-0.58-1.03l-1-1.79L6,19.75v-3.68c0.88-0.58,1.79-1.09,2.73-1.55c1.14-0.58,2.32-1.07,3.55-1.47c1.34-0.44,2.74-0.79,4.17-1.02 c1.45-0.24,2.94-0.36,4.47-0.36c6.8,0,13.04,2.43,17.85,6.47c0.22,0.17,0.43,0.36,0.64,0.54c0.84,0.75,1.64,1.56,2.37,2.41 C41.86,21.18,41.94,21.26,42,21.35z"></path><path fill="#c2185b" d="M42,24.71v7.23c-0.24-0.14-0.57-0.31-0.98-0.49c-0.22-0.11-0.47-0.22-0.73-0.32 c-0.38-0.17-0.79-0.33-1.25-0.49c-0.1-0.04-0.2-0.07-0.31-0.1c-0.18-0.07-0.37-0.13-0.56-0.19c-0.59-0.18-1.24-0.35-1.92-0.5 c-0.26-0.05-0.53-0.1-0.8-0.14c-0.87-0.15-1.8-0.24-2.77-0.25c-0.08-0.01-0.17-0.01-0.25-0.01l-2.57,0.02l-3.5,0.02h-0.01 l-7.49,0.06c-2.38,0-3.84,0.57-4.72,0.8c0,0-0.01,0-0.01,0.01c-0.93,0.24-1.22,0.09-1.3-1.54c-0.02-0.45-0.03-1.03-0.03-1.74 l-0.56-0.43l-0.98-0.74l-0.6-0.46l-0.12-0.09L8.88,24.1l-0.25-0.19l-0.52-0.4l-0.96-0.72L6,21.91v-3.4 c0.1-0.08,0.19-0.15,0.29-0.21c1.45-1,3-1.85,4.64-2.54c1.46-0.62,3-1.11,4.58-1.46c0.43-0.09,0.87-0.18,1.32-0.24 c1.33-0.23,2.7-0.34,4.09-0.34c6.01,0,11.53,2.09,15.91,5.55c0.66,0.52,1.3,1.07,1.9,1.66c0.82,0.78,1.59,1.61,2.3,2.49 c0.14,0.18,0.28,0.36,0.42,0.55C41.64,24.21,41.82,24.46,42,24.71z"></path><path fill="#d81b60" d="M42,28.72V32c0,0.65-0.06,1.29-0.18,1.91c-0.18,0.92-0.49,1.8-0.91,2.62c-0.22,0.05-0.47,0.05-0.75,0.01 c-0.63-0.11-1.37-0.44-2.17-0.87c-0.04-0.01-0.08-0.03-0.11-0.05c-0.25-0.13-0.51-0.27-0.77-0.43c-0.53-0.29-1.09-0.61-1.65-0.91 c-0.12-0.06-0.24-0.12-0.35-0.18c-0.64-0.33-1.3-0.63-1.96-0.86c0,0,0,0-0.01,0c-0.14-0.05-0.29-0.1-0.44-0.14 c-0.57-0.16-1.15-0.26-1.71-0.26l-1.1-0.32l-4.87-1.41c0,0,0,0-0.01,0l-2.99-0.87h-0.01l-1.3-0.38c-3.76,0-6.07,1.6-7.19,0.99 c-0.44-0.23-0.7-0.81-0.79-1.95c-0.03-0.32-0.04-0.68-0.04-1.1l-1.17-0.57l-0.05-0.02h-0.01l-0.84-0.42L9.7,26.35l-0.07-0.03 l-0.17-0.09L7.5,25.28L6,24.55v-3.43c0.17-0.15,0.35-0.29,0.53-0.43c0.19-0.15,0.38-0.29,0.57-0.44c0.01,0,0.01,0,0.01,0 c1.18-0.85,2.43-1.6,3.76-2.22c1.55-0.74,3.2-1.31,4.91-1.68c0.25-0.06,0.51-0.12,0.77-0.16c1.42-0.27,2.88-0.41,4.37-0.41 c5.27,0,10.11,1.71,14.01,4.59c1.13,0.84,2.18,1.77,3.14,2.78c0.79,0.83,1.52,1.73,2.18,2.67c0.05,0.07,0.1,0.14,0.15,0.2 c0.37,0.54,0.71,1.09,1.03,1.66C41.64,28.02,41.82,28.37,42,28.72z"></path><path fill="#f50057" d="M41.82,33.91c-0.18,0.92-0.49,1.8-0.91,2.62c-0.19,0.37-0.4,0.72-0.63,1.06c-0.14,0.21-0.29,0.41-0.44,0.6 c-0.36-0.14-0.89-0.34-1.54-0.56c0,0,0,0,0-0.01c-0.49-0.17-1.05-0.35-1.65-0.52c-0.17-0.05-0.34-0.1-0.52-0.15 c-0.71-0.19-1.45-0.36-2.17-0.46c-0.6-0.1-1.19-0.16-1.74-0.16l-0.46-0.13h-0.01l-2.42-0.7l-1.49-0.43l-1.66-0.48h-0.01l-0.54-0.15 l-6.53-1.88l-1.88-0.54l-1.4-0.33l-2.28-0.54l-0.28-0.07c0,0,0,0-0.01,0l-2.29-0.53c0-0.01,0-0.01,0-0.01l-0.41-0.09l-0.21-0.05 l-1.67-0.39l-0.19-0.05l-1.42-1.17L6,27.9v-4.08c0.37-0.36,0.75-0.7,1.15-1.03c0.12-0.11,0.25-0.21,0.38-0.31 c0.12-0.1,0.25-0.2,0.38-0.3c0.91-0.69,1.87-1.31,2.89-1.84c1.3-0.7,2.68-1.26,4.13-1.66c0.28-0.09,0.56-0.17,0.85-0.23 c1.64-0.41,3.36-0.62,5.14-0.62c4.47,0,8.63,1.35,12.07,3.66c1.71,1.15,3.25,2.53,4.55,4.1c0.66,0.79,1.26,1.62,1.79,2.5 c0.05,0.07,0.09,0.13,0.13,0.2c0.32,0.53,0.62,1.08,0.89,1.64c0.25,0.5,0.47,1,0.67,1.52C41.34,32.25,41.6,33.07,41.82,33.91z"></path><path fill="#ff1744" d="M40.28,37.59c-0.14,0.21-0.29,0.41-0.44,0.6c-0.44,0.55-0.92,1.05-1.46,1.49c-0.47,0.39-0.97,0.74-1.5,1.04 c-0.2-0.05-0.4-0.11-0.61-0.19c-0.66-0.23-1.35-0.61-1.99-1.01c-0.96-0.61-1.79-1.27-2.16-1.57c-0.14-0.12-0.21-0.18-0.21-0.18 l-1.7-0.15L30,37.6l-2.2-0.19l-2.28-0.2l-3.37-0.3l-5.34-0.47l-0.02-0.01l-1.88-0.91l-1.9-0.92l-1.53-0.74l-0.33-0.16l-0.41-0.2 l-1.42-0.69L7.43,31.9l-0.59-0.29L6,31.35v-4.47c0.47-0.56,0.97-1.09,1.5-1.6c0.34-0.32,0.7-0.64,1.07-0.94 c0.06-0.05,0.12-0.1,0.18-0.14c0.04-0.05,0.09-0.08,0.13-0.1c0.59-0.48,1.21-0.91,1.85-1.3c0.74-0.47,1.52-0.89,2.33-1.24 c0.87-0.39,1.78-0.72,2.72-0.97c1.63-0.46,3.36-0.7,5.14-0.7c4.08,0,7.85,1.24,10.96,3.37c1.99,1.36,3.71,3.08,5.07,5.07 c0.45,0.64,0.85,1.32,1.22,2.02c0.13,0.26,0.26,0.52,0.37,0.78c0.12,0.25,0.23,0.5,0.34,0.75c0.21,0.52,0.4,1.04,0.57,1.58 c0.32,1,0.56,2.02,0.71,3.08C40.21,36.89,40.25,37.24,40.28,37.59z"></path><path fill="#ff5722" d="M38.39,39.42c0,0.08,0,0.17-0.01,0.26c-0.47,0.39-0.97,0.74-1.5,1.04c-0.22,0.12-0.44,0.24-0.67,0.34 c-0.23,0.11-0.46,0.21-0.7,0.3c-0.34-0.18-0.8-0.4-1.29-0.61c-0.69-0.31-1.44-0.59-2.02-0.68c-0.14-0.03-0.27-0.04-0.39-0.04 l-1.64-0.21h-0.02l-2.04-0.27l-2.06-0.27l-0.96-0.12l-7.56-0.98c-0.49,0-1.01-0.03-1.55-0.1c-0.66-0.06-1.35-0.16-2.04-0.3 c-0.68-0.12-1.37-0.28-2.03-0.45c-0.69-0.16-1.37-0.35-2-0.53c-0.73-0.22-1.41-0.43-1.98-0.62c-0.47-0.15-0.87-0.29-1.18-0.4 c-0.18-0.43-0.33-0.88-0.44-1.34C6.1,33.66,6,32.84,6,32v-1.67c0.32-0.53,0.67-1.05,1.06-1.54c0.71-0.94,1.52-1.8,2.4-2.56 c0.03-0.04,0.07-0.07,0.1-0.09l0.01-0.01c0.31-0.28,0.63-0.53,0.97-0.77c0.04-0.04,0.08-0.07,0.12-0.1 c0.16-0.12,0.33-0.24,0.51-0.35c1.43-0.97,3.01-1.73,4.7-2.24c1.6-0.48,3.29-0.73,5.05-0.73c3.49,0,6.75,1.03,9.47,2.79 c2.01,1.29,3.74,2.99,5.06,4.98c0.16,0.23,0.31,0.46,0.46,0.7c0.69,1.17,1.26,2.43,1.68,3.75c0.05,0.15,0.09,0.3,0.13,0.46 c0.08,0.27,0.15,0.55,0.21,0.83c0.02,0.07,0.04,0.14,0.06,0.22c0.14,0.63,0.24,1.29,0.31,1.95c0,0.01,0,0.01,0,0.01 C38.36,38.22,38.39,38.82,38.39,39.42z"></path><path fill="#ff6f00" d="M36.33,39.42c0,0.35-0.02,0.73-0.06,1.11c-0.02,0.18-0.04,0.36-0.06,0.53c-0.23,0.11-0.46,0.21-0.7,0.3 c-0.45,0.17-0.91,0.31-1.38,0.41c-0.32,0.07-0.65,0.13-0.98,0.16h-0.01c-0.31-0.19-0.67-0.42-1.04-0.68 c-0.67-0.47-1.37-1-1.93-1.43c-0.01-0.01-0.01-0.01-0.02-0.02c-0.59-0.45-1.01-0.79-1.01-0.79l-1.06,0.04l-2.04,0.07l-0.95,0.04 l-3.82,0.14l-3.23,0.12c-0.21,0.01-0.46,0.01-0.77,0h-0.01c-0.42-0.01-0.92-0.04-1.47-0.09c-0.64-0.05-1.34-0.11-2.05-0.18 c-0.69-0.08-1.39-0.16-2.06-0.24c-0.74-0.08-1.44-0.17-2.04-0.25c-0.47-0.06-0.88-0.11-1.21-0.15c-0.28-0.32-0.53-0.65-0.77-1.01 c-0.36-0.54-0.67-1.11-0.91-1.72c-0.18-0.43-0.33-0.88-0.44-1.34c0.29-0.89,0.67-1.73,1.12-2.54c0.36-0.66,0.78-1.29,1.24-1.89 c0.45-0.59,0.94-1.14,1.47-1.64v-0.01c0.15-0.15,0.3-0.29,0.45-0.42c0.28-0.26,0.57-0.5,0.87-0.73h0.01 c0.01-0.02,0.02-0.02,0.03-0.03c0.24-0.19,0.49-0.36,0.74-0.53c1.48-1.01,3.15-1.76,4.95-2.2c1.19-0.29,2.44-0.45,3.73-0.45 c2.54,0,4.94,0.61,7.05,1.71h0.01c1.81,0.93,3.41,2.21,4.7,3.75c0.71,0.82,1.32,1.72,1.82,2.67c0.35,0.64,0.65,1.31,0.9,1.99 c0.02,0.06,0.04,0.11,0.06,0.16c0.17,0.5,0.32,1.02,0.45,1.54c0.09,0.37,0.16,0.75,0.22,1.13c0.02,0.12,0.04,0.23,0.05,0.35 C36.28,37.99,36.33,38.7,36.33,39.42z"></path><path fill="#ff9800" d="M34.28,39.42v0.1c0,0.34-0.03,0.77-0.06,1.23c-0.03,0.34-0.06,0.69-0.09,1.02c-0.32,0.07-0.65,0.13-0.98,0.16 h-0.01C32.76,41.98,32.39,42,32,42h-1.75l-0.38-0.11l-1.97-0.6l-2-0.6l-4.63-1.39l-2-0.6c0,0-0.83,0.33-2,0.72h-0.01 c-0.45,0.15-0.94,0.31-1.46,0.47c-0.65,0.19-1.34,0.38-2.02,0.53c-0.7,0.16-1.39,0.28-2.01,0.33c-0.19,0.02-0.38,0.03-0.55,0.03 c-0.56-0.31-1.1-0.68-1.59-1.09c-0.43-0.36-0.83-0.75-1.2-1.18c-0.28-0.32-0.53-0.65-0.77-1.01c0.07-0.45,0.15-0.89,0.27-1.32 c0.3-1.19,0.77-2.33,1.39-3.37c0.34-0.59,0.72-1.16,1.16-1.69c0.01-0.03,0.04-0.06,0.07-0.08c-0.01-0.01,0-0.01,0-0.01 c0.13-0.17,0.27-0.33,0.41-0.48c0-0.01,0-0.01,0-0.01c0.41-0.44,0.83-0.86,1.29-1.25c0.16-0.13,0.31-0.26,0.48-0.39 c0.03-0.03,0.06-0.05,0.1-0.08c2.25-1.72,5.06-2.76,8.09-2.76c3.44,0,6.57,1.29,8.94,3.41c1.14,1.03,2.11,2.26,2.84,3.63 c0.06,0.1,0.12,0.21,0.17,0.32c0.09,0.18,0.18,0.37,0.26,0.57c0.33,0.72,0.59,1.48,0.77,2.26c0.02,0.08,0.04,0.16,0.06,0.24 c0.08,0.37,0.15,0.75,0.2,1.13C34.24,38.21,34.28,38.81,34.28,39.42z"></path><path fill="#ffc107" d="M32.22,39.42c0,0.2-0.01,0.42-0.02,0.65c-0.02,0.37-0.05,0.77-0.1,1.18c-0.02,0.25-0.06,0.5-0.1,0.75h-5.48 l-1.06-0.17l-4.14-0.66l-0.59-0.09l-1.35-0.22c-0.59,0-1.87,0.26-3.22,0.51c-0.71,0.13-1.43,0.27-2.08,0.36 c-0.08,0.01-0.16,0.02-0.23,0.03h-0.01c-0.7-0.15-1.38-0.38-2.02-0.68c-0.2-0.09-0.4-0.19-0.6-0.3c-0.56-0.31-1.1-0.68-1.59-1.09 c-0.01-0.12-0.02-0.22-0.02-0.27c0-0.26,0.01-0.51,0.03-0.76c0.04-0.64,0.13-1.26,0.27-1.86c0.22-0.91,0.54-1.79,0.97-2.6 c0.08-0.17,0.17-0.34,0.27-0.5c0.04-0.08,0.09-0.15,0.13-0.23c0.18-0.29,0.38-0.57,0.58-0.85c0.42-0.55,0.89-1.07,1.39-1.54 c0.01,0,0.01,0,0.01,0c0.04-0.04,0.08-0.08,0.12-0.11c0.05-0.04,0.09-0.09,0.14-0.12c0.2-0.18,0.4-0.34,0.61-0.49 c0-0.01,0.01-0.01,0.01-0.01c1.89-1.41,4.23-2.24,6.78-2.24c1.98,0,3.82,0.5,5.43,1.38h0.01c1.38,0.76,2.58,1.79,3.53,3.03 c0.37,0.48,0.7,0.99,0.98,1.53h0.01c0.05,0.1,0.1,0.2,0.15,0.3c0.3,0.59,0.54,1.21,0.72,1.85h0.01c0.01,0.05,0.03,0.1,0.04,0.15 c0.12,0.43,0.22,0.87,0.29,1.32c0.01,0.09,0.02,0.19,0.03,0.28C32.19,38.43,32.22,38.92,32.22,39.42z"></path><path fill="#ffd54f" d="M30.17,39.31c0,0.16,0,0.33-0.02,0.49v0.01c0,0.01,0,0.01,0,0.01c-0.02,0.72-0.12,1.43-0.28,2.07 c0,0.04-0.01,0.07-0.03,0.11h-4.67l-3.85-0.83l-0.51-0.11l-0.08,0.02l-4.27,0.88L16.27,42H16c-0.64,0-1.27-0.06-1.88-0.18 c-0.09-0.02-0.18-0.04-0.27-0.06h-0.01c-0.7-0.15-1.38-0.38-2.02-0.68c-0.02-0.11-0.04-0.22-0.05-0.33 c-0.07-0.43-0.1-0.88-0.1-1.33c0-0.17,0-0.34,0.01-0.51c0.03-0.54,0.11-1.07,0.23-1.58c0.08-0.38,0.19-0.75,0.32-1.1 c0.11-0.31,0.24-0.61,0.38-0.9c0.12-0.25,0.26-0.49,0.4-0.73c0.14-0.23,0.29-0.45,0.45-0.67c0.4-0.55,0.87-1.06,1.39-1.51 c0.3-0.26,0.63-0.51,0.97-0.73c1.46-0.96,3.21-1.52,5.1-1.52c0.37,0,0.73,0.02,1.08,0.07h0.02c1.07,0.12,2.07,0.42,2.99,0.87 c0.01,0,0.01,0,0.01,0c1.45,0.71,2.68,1.78,3.58,3.1c0.15,0.22,0.3,0.46,0.43,0.7c0.11,0.19,0.21,0.39,0.3,0.59 c0.14,0.31,0.27,0.64,0.38,0.97h0.01c0.11,0.37,0.21,0.74,0.28,1.13v0.01C30.11,38.16,30.17,38.73,30.17,39.31z"></path><path fill="#ffe082" d="M28.11,39.52v0.03c0,0.59-0.07,1.17-0.21,1.74c-0.05,0.24-0.12,0.48-0.21,0.71h-4.48l-2.29-0.63L18.63,42H16 c-0.64,0-1.27-0.06-1.88-0.18c-0.02-0.03-0.03-0.06-0.04-0.09c-0.14-0.43-0.25-0.86-0.3-1.31c-0.04-0.29-0.06-0.59-0.06-0.9 c0-0.12,0-0.25,0.02-0.37c0.01-0.47,0.08-0.93,0.2-1.37c0.06-0.3,0.15-0.59,0.27-0.87c0.04-0.14,0.1-0.27,0.17-0.4 c0.15-0.34,0.33-0.67,0.53-0.99c0.22-0.32,0.46-0.62,0.73-0.9c0.32-0.36,0.68-0.69,1.09-0.96c0.7-0.51,1.5-0.89,2.37-1.1 c0.58-0.16,1.19-0.24,1.82-0.24c2,0,3.79,0.8,5.09,2.09c0.05,0.05,0.11,0.11,0.16,0.18h0.01c0.14,0.15,0.27,0.3,0.4,0.47 c0.37,0.47,0.68,0.98,0.92,1.54c0.12,0.26,0.22,0.53,0.3,0.81c0.01,0.04,0.02,0.07,0.03,0.11c0.14,0.49,0.23,1,0.25,1.53 C28.1,39.2,28.11,39.36,28.11,39.52z"></path><path fill="#ffecb3" d="M26.06,39.52c0,0.41-0.05,0.8-0.16,1.17c-0.1,0.4-0.25,0.78-0.44,1.14c-0.03,0.06-0.1,0.17-0.1,0.17h-8.88 c-0.01-0.01-0.02-0.03-0.02-0.04c-0.12-0.19-0.22-0.38-0.3-0.59c-0.2-0.46-0.32-0.96-0.36-1.48c-0.02-0.12-0.02-0.25-0.02-0.37 c0-0.06,0-0.13,0.01-0.19c0.01-0.44,0.07-0.86,0.19-1.25c0.1-0.36,0.23-0.69,0.4-1.01c0,0,0.01-0.01,0.01-0.02 c0.12-0.21,0.25-0.42,0.4-0.62c0.49-0.66,1.14-1.2,1.89-1.55c0.01,0,0.01,0,0.01,0c0.24-0.12,0.49-0.22,0.75-0.29c0,0,0,0,0.01,0 c0.46-0.14,0.96-0.21,1.47-0.21c0.59,0,1.16,0.09,1.68,0.28c0.19,0.05,0.37,0.13,0.55,0.22c0,0,0,0,0.01,0 c0.86,0.41,1.59,1.05,2.09,1.85c0.1,0.15,0.19,0.31,0.27,0.48c0.04,0.07,0.08,0.15,0.11,0.22c0.23,0.52,0.37,1.09,0.41,1.69 c0.01,0.05,0.01,0.1,0.01,0.16C26.06,39.36,26.06,39.44,26.06,39.52z"></path><path fill="none" stroke="#fff" stroke-linecap="round" stroke-linejoin="round" stroke-miterlimit="10" stroke-width="2" d="M30,11H18c-3.9,0-7,3.1-7,7v12c0,3.9,3.1,7,7,7h12c3.9,0,7-3.1,7-7V18C37,14.1,33.9,11,30,11z"></path><circle cx="31" cy="16" r="1" fill="#fff"></circle><g><circle cx="24" cy="24" r="6" fill="none" stroke="#fff" stroke-linecap="round" stroke-linejoin="round" stroke-miterlimit="10" stroke-width="2"></circle></g></g>
        </symbol>
        <symbol id="twitter-x" viewBox="0 0 448 512">
            <title>square-x-twitter</title><g fill="#212121"><path d="M64 32C28.7 32 0 60.7 0 96V416c0 35.3 28.7 64 64 64H384c35.3 0 64-28.7 64-64V96c0-35.3-28.7-64-64-64H64zm297.1 84L257.3 234.6 379.4 396H283.8L209 298.1 123.3 396H75.8l111-126.9L69.7 116h98l67.7 89.5L313.6 116h47.5zM323.3 367.6L153.4 142.9H125.1L296.9 367.6h26.3z"></path></g>
        </symbol>
        <symbol id="linkedin" viewBox="0 0 512 512">
            <title>linkedin</title><g fill="#0077B5"><path d="M416 32H31.9C14.3 32 0 46.5 0 64.3v383.4C0 465.5 14.3 480 31.9 480H416c17.6 0 32-14.5 32-32.3V64.3c0-17.8-14.4-32.3-32-32.3zM135.4 416H69V202.2h66.5V416zm-33.2-243c-21.3 0-38.5-17.3-38.5-38.5S80.9 96 102.2 96c21.2 0 38.5 17.3 38.5 38.5 0 21.3-17.2 38.5-38.5 38.5zm282.1 243h-66.4V312c0-24.8-.5-56.7-34.5-56.7-34.6 0-39.9 27-39.9 54.9V416h-66.4V202.2h63.7v29.2h.9c8.9-16.8 30.6-34.5 62.9-34.5 67.2 0 79.7 44.3 79.7 101.9V416z"></path></g>
        </symbol>
        <symbol id="telegram" viewBox="0 0 496 512">
            <title>telegram</title><g fill="auto"><path d="M248,8C111.033,8,0,119.033,0,256S111.033,504,248,504,496,392.967,496,256,384.967,8,248,8ZM362.952,176.66c-3.732,39.215-19.881,134.378-28.1,178.3-3.476,18.584-10.322,24.816-16.948,25.425-14.4,1.326-25.338-9.517-39.287-18.661-21.827-14.308-34.158-23.215-55.346-37.177-24.485-16.135-8.612-25,5.342-39.5,3.652-3.793,67.107-61.51,68.335-66.746.153-.655.3-3.1-1.154-4.384s-3.59-.849-5.135-.5q-3.283.746-104.608,69.142-14.845,10.194-26.894,9.934c-8.855-.191-25.888-5.006-38.551-9.123-15.531-5.048-27.875-7.717-26.8-16.291q.84-6.7,18.45-13.7,108.446-47.248,144.628-62.3c68.872-28.647,83.183-33.623,92.511-33.789,2.052-.034,6.639.474,9.61,2.885a10.452,10.452,0,0,1,3.53,6.716A43.765,43.765,0,0,1,362.952,176.66Z"></path></g>
        </symbol>
        <symbol id="check2" viewBox="0 0 16 16">
            <path d="M13.854 3.646a.5.5 0 0 1 0 .708l-7 7a.5.5 0 0 1-.708 0l-3.5-3.5a.5.5 0 1 1 .708-.708L6.5 10.293l6.646-6.647a.5.5 0 0 1 .708 0z"/>
        </symbol>
        <symbol id="circle-half" viewBox="0 0 16 16">
          <path d="M8 15A7 7 0 1 0 8 1v14zm0 1A8 8 0 1 1 8 0a8 8 0 0 1 0 16z"/>
        </symbol>
        <symbol id="moon-stars-fill" viewBox="0 0 16 16">
          <path d="M6 .278a.768.768 0 0 1 .08.858 7.208 7.208 0 0 0-.878 3.46c0 4.021 3.278 7.277 7.318 7.277.527 0 1.04-.055 1.533-.16a.787.787 0 0 1 .81.316.733.733 0 0 1-.031.893A8.349 8.349 0 0 1 8.344 16C3.734 16 0 12.286 0 7.71 0 4.266 2.114 1.312 5.124.06A.752.752 0 0 1 6 .278z"/>
          <path d="M10.794 3.148a.217.217 0 0 1 .412 0l.387 1.162c.173.518.579.924 1.097 1.097l1.162.387a.217.217 0 0 1 0 .412l-1.162.387a1.734 1.734 0 0 0-1.097 1.097l-.387 1.162a.217.217 0 0 1-.412 0l-.387-1.162A1.734 1.734 0 0 0 9.31 6.593l-1.162-.387a.217.217 0 0 1 0-.412l1.162-.387a1.734 1.734 0 0 0 1.097-1.097l.387-1.162zM13.863.099a.145.145 0 0 1 .274 0l.258.774c.115.346.386.617.732.732l.774.258a.145.145 0 0 1 0 .274l-.774.258a1.156 1.156 0 0 0-.732.732l-.258.774a.145.145 0 0 1-.274 0l-.258-.774a1.156 1.156 0 0 0-.732-.732l-.774-.258a.145.145 0 0 1 0-.274l.774-.258c.346-.115.617-.386.732-.732L13.863.1z"/>
        </symbol>
        <symbol id="sun-fill" viewBox="0 0 16 16">
          <path d="M8 12a4 4 0 1 0 0-8 4 4 0 0 0 0 8zM8 0a.5.5 0 0 1 .5.5v2a.5.5 0 0 1-1 0v-2A.5.5 0 0 1 8 0zm0 13a.5.5 0 0 1 .5.5v2a.5.5 0 0 1-1 0v-2A.5.5 0 0 1 8 13zm8-5a.5.5 0 0 1-.5.5h-2a.5.5 0 0 1 0-1h2a.5.5 0 0 1 .5.5zM3 8a.5.5 0 0 1-.5.5h-2a.5.5 0 0 1 0-1h2A.5.5 0 0 1 3 8zm10.657-5.657a.5.5 0 0 1 0 .707l-1.414 1.415a.5.5 0 1 1-.707-.708l1.414-1.414a.5.5 0 0 1 .707 0zm-9.193 9.193a.5.5 0 0 1 0 .707L3.05 13.657a.5.5 0 0 1-.707-.707l1.414-1.414a.5.5 0 0 1 .707 0zm9.193 2.121a.5.5 0 0 1-.707 0l-1.414-1.414a.5.5 0 0 1 .707-.707l1.414 1.414a.5.5 0 0 1 0 .707zM4.464 4.465a.5.5 0 0 1-.707 0L2.343 3.05a.5.5 0 1 1 .707-.707l1.414 1.414a.5.5 0 0 1 0 .708z"/>
        </symbol>
        <symbol id="chevron-left" viewBox="0 0 16 16">
            <title>chevron-left</title><g fill="#212121"><path fill-rule="evenodd" d="M11.354 1.646a.5.5 0 0 1 0 .708L5.707 8l5.647 5.646a.5.5 0 0 1-.708.708l-6-6a.5.5 0 0 1 0-.708l6-6a.5.5 0 0 1 .708 0"></path></g>
        </symbol>
        <symbol id="chevron-right" viewBox="0 0 16 16">
            <title>chevron-right</title><g fill="#212121"><path fill-rule="evenodd" d="M4.646 1.646a.5.5 0 0 1 .708 0l6 6a.5.5 0 0 1 0 .708l-6 6a.5.5 0 0 1-.708-.708L10.293 8 4.646 2.354a.5.5 0 0 1 0-.708"></path></g>
        </symbol>
        <symbol id="arrow-bar-right" width="16" height="16" fill="currentColor" class="bi bi-arrow-bar-right" viewBox="0 0 16 16">
            <path fill-rule="evenodd" d="M6 8a.5.5 0 0 0 .5.5h5.793l-2.147 2.146a.5.5 0 0 0 .708.708l3-3a.5.5 0 0 0 0-.708l-3-3a.5.5 0 0 0-.708.708L12.293 7.5H6.5A.5.5 0 0 0 6 8m-2.5 7a.5.5 0 0 1-.5-.5v-13a.5.5 0 0 1 1 0v13a.5.5 0 0 1-.5.5"/>
        </symbol>
        <symbol id="share" viewBox="0 0 576 512">
            <title>share-from-square</title><g fill="#auto"><path d="M352 224H305.5c-45 0-81.5 36.5-81.5 81.5c0 22.3 10.3 34.3 19.2 40.5c6.8 4.7 12.8 12 12.8 20.3c0 9.8-8 17.8-17.8 17.8h-2.5c-2.4 0-4.8-.4-7.1-1.4C210.8 374.8 128 333.4 128 240c0-79.5 64.5-144 144-144h80V34.7C352 15.5 367.5 0 386.7 0c8.6 0 16.8 3.2 23.2 8.9L548.1 133.3c7.6 6.8 11.9 16.5 11.9 26.7s-4.3 19.9-11.9 26.7l-139 125.1c-5.9 5.3-13.5 8.2-21.4 8.2H384c-17.7 0-32-14.3-32-32V224zM80 96c-8.8 0-16 7.2-16 16V432c0 8.8 7.2 16 16 16H400c8.8 0 16-7.2 16-16V384c0-17.7 14.3-32 32-32s32 14.3 32 32v48c0 44.2-35.8 80-80 80H80c-44.2 0-80-35.8-80-80V112C0 67.8 35.8 32 80 32h48c17.7 0 32 14.3 32 32s-14.3 32-32 32H80z"></path></g>
        </symbol>
    </svg>
    