<svg width="19" height="21" viewBox="0 0 19 21" fill="none" xmlns="http://www.w3.org/2000/svg">
<g id="instagram 1" clip-path="url(#clip0_50_329)">
<g id="Group">
<g id="Group_2">
<path id="Vector" d="M9.5041 5.7833C6.8955 5.7833 4.7914 7.8874 4.7914 10.496C4.7914 13.1046 6.8955 15.2087 9.5041 15.2087C12.1127 15.2087 14.2168 13.1046 14.2168 10.496C14.2168 7.8874 12.1127 5.7833 9.5041 5.7833ZM9.5041 13.5599C7.81835 13.5599 6.44023 12.1858 6.44023 10.496C6.44023 8.80615 7.81425 7.43213 9.5041 7.43213C11.1939 7.43213 12.568 8.80615 12.568 10.496C12.568 12.1858 11.1898 13.5599 9.5041 13.5599ZM15.5088 5.59053C15.5088 6.20166 15.0166 6.68975 14.4096 6.68975C13.7984 6.68975 13.3103 6.19756 13.3103 5.59053C13.3103 4.9835 13.8025 4.49131 14.4096 4.49131C15.0166 4.49131 15.5088 4.9835 15.5088 5.59053ZM18.6301 6.70615C18.5603 5.23369 18.224 3.92939 17.1453 2.85478C16.0707 1.78018 14.7664 1.44385 13.2939 1.37002C11.7764 1.28389 7.22773 1.28389 5.71015 1.37002C4.24179 1.43975 2.93749 1.77607 1.85878 2.85068C0.780072 3.92529 0.447845 5.22959 0.374017 6.70205C0.287885 8.21963 0.287885 12.7683 0.374017 14.2858C0.443744 15.7583 0.780072 17.0626 1.85878 18.1372C2.93749 19.2118 4.23769 19.5481 5.71015 19.622C7.22773 19.7081 11.7764 19.7081 13.2939 19.622C14.7664 19.5522 16.0707 19.2159 17.1453 18.1372C18.2199 17.0626 18.5562 15.7583 18.6301 14.2858C18.7162 12.7683 18.7162 8.22373 18.6301 6.70615ZM16.6695 15.9142C16.3496 16.7181 15.7303 17.3374 14.9223 17.6614C13.7123 18.1413 10.8412 18.0306 9.5041 18.0306C8.16699 18.0306 5.29179 18.1372 4.08593 17.6614C3.28203 17.3415 2.66269 16.7222 2.33867 15.9142C1.85878 14.7042 1.96953 11.8331 1.96953 10.496C1.96953 9.15889 1.86288 6.28369 2.33867 5.07783C2.65859 4.27393 3.27792 3.65459 4.08593 3.33057C5.29589 2.85068 8.16699 2.96143 9.5041 2.96143C10.8412 2.96143 13.7164 2.85478 14.9223 3.33057C15.7262 3.65049 16.3455 4.26982 16.6695 5.07783C17.1494 6.28779 17.0387 9.15889 17.0387 10.496C17.0387 11.8331 17.1494 14.7083 16.6695 15.9142Z" fill="#212121"/>
</g>
</g>
</g>
<defs>
<clipPath id="clip0_50_329">
<rect width="18.375" height="21" fill="white" transform="translate(0.3125)"/>
</clipPath>
</defs>
</svg>
