<svg width="109" height="108" viewBox="0 0 109 108" fill="none" xmlns="http://www.w3.org/2000/svg">
<g id="rocket 1">
<g id="Group">
<g id="Group_2">
<path id="Vector" d="M69.8668 33.073C68.5643 33.0737 67.3024 33.526 66.296 34.3528C65.2896 35.1796 64.601 36.3298 64.3476 37.6074C64.0941 38.885 64.2915 40.2109 64.906 41.3593C65.5206 42.5077 66.5143 43.4074 67.7178 43.9053C68.9214 44.4032 70.2604 44.4683 71.5066 44.0897C72.7528 43.7111 73.8292 42.912 74.5523 41.8287C75.2755 40.7455 75.6007 39.445 75.4725 38.1488C75.3443 36.8527 74.7706 35.6411 73.8493 34.7204C73.3268 34.1969 72.706 33.7818 72.0225 33.4991C71.3391 33.2164 70.6064 33.0716 69.8668 33.073Z" fill="black"/>
<path id="Vector_2" d="M101.21 10.5595C101.209 10.5533 101.209 10.5468 101.21 10.5406C101.032 9.75865 100.638 9.04214 100.074 8.47188C99.5105 7.90163 98.7984 7.50031 98.0185 7.31321C91.7326 5.7797 81.8438 7.41446 70.8856 11.802C59.8409 16.2317 49.4924 22.7707 42.4977 29.7781C40.2557 32.0081 38.1729 34.3926 36.2645 36.9141C31.5542 36.7031 27.4051 37.3739 23.9099 38.899C11.7303 44.2589 8.25197 57.9762 7.32595 63.6082C7.19195 64.4085 7.24442 65.2288 7.47927 66.0055C7.71412 66.7821 8.12501 67.4941 8.67997 68.086C9.23494 68.6779 9.919 69.1338 10.6789 69.4181C11.4388 69.7025 12.2541 69.8076 13.0613 69.7254H13.0888L26.6563 68.2446C26.6731 68.4176 26.6921 68.5758 26.7069 68.7213C26.8811 70.3746 27.6184 71.9177 28.7952 73.092L35.4165 79.7175C36.589 80.8959 38.1318 81.6341 39.785 81.8079L40.2385 81.8564L38.762 95.407C38.762 95.407 38.762 95.4239 38.762 95.4345C38.6865 96.1643 38.7642 96.9018 38.99 97.5999C39.2158 98.2979 39.5848 98.9412 40.0733 99.4886C40.5619 100.036 41.1594 100.475 41.8274 100.779C42.4955 101.082 43.2195 101.242 43.9531 101.25C44.2464 101.25 44.5392 101.226 44.8285 101.178C50.4922 100.267 64.2031 96.8309 69.5483 84.586C71.0607 81.1139 71.7294 76.9817 71.5417 72.2799C74.0744 70.3757 76.4677 68.2926 78.703 66.0467C85.7546 59.0309 92.3148 48.7667 96.6981 37.8823C101.062 27.0485 102.706 17.0859 101.21 10.5595ZM78.627 47.4483C76.8938 49.1833 74.685 50.3653 72.2799 50.8447C69.8748 51.324 67.3815 51.0793 65.1156 50.1414C62.8496 49.2035 60.9127 47.6146 59.55 45.5756C58.1872 43.5367 57.4598 41.1394 57.4598 38.687C57.4598 36.2346 58.1872 33.8373 59.55 31.7984C60.9127 29.7594 62.8496 28.1705 65.1156 27.2326C67.3815 26.2947 69.8748 26.05 72.2799 26.5294C74.685 27.0087 76.8938 28.1907 78.627 29.9257C79.7887 31.07 80.7113 32.4338 81.341 33.938C81.9707 35.4421 82.295 37.0564 82.295 38.687C82.295 40.3176 81.9707 41.9319 81.341 43.4361C80.7113 44.9402 79.7887 46.304 78.627 47.4483Z" fill="black"/>
<path id="Vector_3" d="M34.6571 81.5146C33.8409 81.4134 33.0158 81.6136 32.3368 82.0778C30.9889 82.9996 29.6347 83.9109 28.2678 84.7989C25.5024 86.5961 22.1949 83.4405 23.8381 80.5802L26.401 76.1505C26.7674 75.6145 26.9715 74.9842 26.9886 74.3351C27.0058 73.6861 26.8354 73.0459 26.4979 72.4912C26.1603 71.9366 25.67 71.4911 25.0856 71.2082C24.5012 70.9252 23.8476 70.8169 23.2032 70.896C20.3587 71.2558 17.7147 72.5514 15.6875 74.579C14.9155 75.3532 12.5677 77.703 11.3042 86.6573C10.9446 89.2293 10.7179 91.8181 10.625 94.4135C10.6135 94.8639 10.6922 95.3121 10.8567 95.7316C11.0211 96.1511 11.2679 96.5334 11.5824 96.8561C11.897 97.1787 12.2729 97.435 12.6882 97.61C13.1034 97.785 13.5494 97.8751 14 97.875H14.0844C16.6817 97.783 19.2726 97.5577 21.8469 97.1999C30.8054 95.9343 33.1552 93.5845 33.9273 92.8125C35.9643 90.7844 37.2568 88.128 37.5955 85.2735C37.7039 84.3855 37.4553 83.4907 36.9044 82.7859C36.3534 82.081 35.5451 81.6238 34.6571 81.5146Z" fill="black"/>
</g>
</g>
</g>
</svg>
