<svg width="33" height="18" viewBox="0 0 33 18" fill="none" xmlns="http://www.w3.org/2000/svg">
<path id="Vector" fill-rule="evenodd" clip-rule="evenodd" d="M0.37101 0.37763C0.488896 0.257926 0.628941 0.162954 0.783122 0.0981542C0.937303 0.0333542 1.10259 0 1.26952 0C1.43645 0 1.60174 0.0333542 1.75592 0.0981542C1.9101 0.162954 2.05014 0.257926 2.16803 0.37763L16.4985 14.8948L30.829 0.37763C30.947 0.25812 31.087 0.163319 31.2412 0.0986409C31.3954 0.0339626 31.5606 0.000672986 31.7275 0.000672986C31.8944 0.000672986 32.0596 0.0339626 32.2138 0.0986409C32.3679 0.163319 32.508 0.25812 32.626 0.37763C32.744 0.49714 32.8376 0.639018 32.9014 0.795165C32.9653 0.951313 32.9982 1.11867 32.9982 1.28768C32.9982 1.4567 32.9653 1.62405 32.9014 1.7802C32.8376 1.93635 32.744 2.07823 32.626 2.19774L17.397 17.6224C17.2791 17.7421 17.1391 17.837 16.9849 17.9018C16.8307 17.9666 16.6654 18 16.4985 18C16.3316 18 16.1663 17.9666 16.0121 17.9018C15.8579 17.837 15.7179 17.7421 15.6 17.6224L0.37101 2.19774C0.252824 2.07834 0.159057 1.93649 0.0950794 1.78033C0.0311013 1.62417 -0.00183105 1.45676 -0.00183105 1.28768C-0.00183105 1.11861 0.0311013 0.951199 0.0950794 0.795037C0.159057 0.638875 0.252824 0.497031 0.37101 0.37763Z" fill="black"/>
</svg>
