<svg width="22" height="21" viewBox="0 0 22 21" fill="none" xmlns="http://www.w3.org/2000/svg">
<g id="youtube-play 1">
<g id="Group">
<g id="Group_2">
<path id="Vector" d="M9.00781 13.0856V7.91437C9.00824 7.89311 9.01425 7.87233 9.02523 7.85412C9.03621 7.83591 9.05179 7.8209 9.0704 7.8106C9.089 7.8003 9.10999 7.79507 9.13125 7.79543C9.15252 7.79579 9.17332 7.80173 9.19156 7.81265L13.2603 10.3983C13.278 10.4087 13.2927 10.4236 13.3028 10.4414C13.313 10.4593 13.3184 10.4795 13.3184 10.5C13.3184 10.5205 13.313 10.5407 13.3028 10.5586C13.2927 10.5764 13.278 10.5913 13.2603 10.6017L9.19156 13.1873C9.17332 13.1983 9.15252 13.2042 9.13125 13.2046C9.10999 13.2049 9.089 13.1997 9.0704 13.1894C9.05179 13.1791 9.03621 13.1641 9.02523 13.1459C9.01425 13.1277 9.00824 13.1069 9.00781 13.0856Z" stroke="#212121" stroke-width="1.43182"/>
<path id="Vector_2" d="M16.2233 4.73145H5.405C3.76316 4.73145 2.43219 6.06242 2.43219 7.70426V13.2955C2.43219 14.9373 3.76316 16.2683 5.405 16.2683H16.2233C17.8651 16.2683 19.1961 14.9373 19.1961 13.2955V7.70426C19.1961 6.06242 17.8651 4.73145 16.2233 4.73145Z" stroke="#212121" stroke-width="1.43182"/>
</g>
</g>
</g>
</svg>
